<?xml version="1.0" encoding="utf-8"?>
<COLLADA xmlns="http://www.collada.org/2005/11/COLLADASchema" version="1.4.1" xmlns:xsi="http://www.w3.org/2001/XMLSchema-instance">
  <asset>
    <contributor>
      <author>Blender User</author>
      <authoring_tool>Blender 4.5.3 LTS commit date:2025-09-08, commit time:12:46, hash:67807e1800cc</authoring_tool>
    </contributor>
    <created>2025-10-29T10:42:00</created>
    <modified>2025-10-29T10:42:00</modified>
    <unit name="meter" meter="1"/>
    <up_axis>Z_UP</up_axis>
  </asset>
  <library_effects>
    <effect id="Material_001-effect">
      <profile_COMMON>
        <newparam sid="gen0-surface">
          <surface type="2D">
            <init_from>gen0</init_from>
          </surface>
        </newparam>
        <newparam sid="gen0-sampler">
          <sampler2D>
            <source>gen0-surface</source>
          </sampler2D>
        </newparam>
        <technique sid="common">
          <lambert>
            <emission>
              <color sid="emission">0 0 0 1</color>
            </emission>
            <diffuse>
              <texture texture="gen0-sampler" texcoord="Roof_low-mesh-map-0"/>
            </diffuse>
            <index_of_refraction>
              <float sid="ior">1.45</float>
            </index_of_refraction>
          </lambert>
        </technique>
      </profile_COMMON>
    </effect>
  </library_effects>
  <library_images>
    <image id="gen0" name="gen0">
      <init_from>gen0.png</init_from>
    </image>
  </library_images>
  <library_materials>
    <material id="Material_001-material" name="Material.001">
      <instance_effect url="#Material_001-effect"/>
    </material>
  </library_materials>
  <library_geometries>
    <geometry id="Roof_low_001-mesh" name="Roof_low.001">
      <mesh>
        <source id="Roof_low_001-mesh-positions">
          <float_array id="Roof_low_001-mesh-positions-array" count="1314">0.876327 1.144456 0.537663 0.867719 1.199332 0.520166 0.876278 1.143136 0.54432 0.867719 1.195173 0.541071 0.876361 1.139365 0.549963 0.867719 1.183331 0.558794 0.876555 1.133724 0.553733 0.867719 1.165609 0.570636 0.876776 1.127071 0.555056 0.867719 1.144703 0.574794 0.877088 1.120428 0.553722 0.867719 1.123798 0.570636 0.877345 1.114813 0.549931 0.867719 1.106075 0.558794 0.877357 1.111021 0.54431 0.867719 1.094233 0.541071 0.877266 1.109683 0.537662 0.867719 1.090075 0.520166 0.877165 1.111002 0.531004 0.867719 1.094233 0.499261 0.87707 1.114772 0.52536 0.867719 1.106075 0.481538 0.876996 1.120418 0.521594 0.867719 1.123798 0.469696 0.876849 1.127072 0.520276 0.867719 1.144703 0.465538 0.876669 1.133723 0.5216 0.867719 1.165609 0.469696 0.876513 1.139361 0.525369 0.867719 1.183331 0.481538 0.876403 1.143128 0.531009 0.867719 1.195173 0.499261 0.870526 1.179826 0.524954 0.870788 1.176624 0.54077 0.870704 1.170353 0.546933 0.876228 1.160745 0.558911 0.875821 1.144682 0.564189 0.876257 1.127852 0.56081 0.876629 1.113603 0.551255 0.876877 1.104092 0.536985 0.876964 1.100754 0.520166 0.876877 1.104092 0.503347 0.87269 1.115769 0.493332 0.872557 1.122671 0.486811 0.871757 1.138445 0.483588 0.871151 1.154275 0.4867 0.870722 1.167711 0.495665 0.870499 1.176688 0.509103 0.868229 1.143263 0.537662 0.868264 1.142013 0.543948 0.868364 1.138454 0.549277 0.868514 1.133127 0.552838 0.868691 1.126843 0.554088 0.868867 1.12056 0.552838 0.869017 1.115233 0.549277 0.869117 1.111673 0.543948 0.869152 1.110424 0.537662 0.869117 1.111673 0.531376 0.869017 1.115233 0.526047 0.868867 1.12056 0.522486 0.86869 1.126843 0.521236 0.868514 1.133127 0.522486 0.868364 1.138454 0.526047 0.868264 1.142013 0.531376 0.873894 1.159946 0.520417 0.87469 1.131826 0.498235 0.878865 1.169036 0.527483 0.874399 1.142749 0.50344 0.872228 1.1687 0.542875 0.874121 1.152367 0.51091 0.874986 1.120378 0.495425 0.879193 1.11509 0.500025 0.875073 1.186956 0.520171 0.875064 1.183807 0.536389 0.876912 1.114465 0.490238 0.876533 1.128422 0.480942 0.876208 1.144681 0.477842 0.875828 1.160857 0.481114 0.875473 1.174554 0.490291 0.87521 1.183713 0.503998 0.880101 1.12599 0.493534 0.875269 1.174547 0.550376 0.879712 1.137093 0.496221 0.879427 1.147403 0.501246 0.879182 1.15645 0.508328 0.878994 1.163621 0.517331 0.873741 1.165654 0.531192 0.877369 1.171962 0.538695 0.870365 1.177904 0.524962 0.870567 1.174925 0.540085 0.872972 1.112772 0.493403 0.872292 1.12328 0.488396 0.871493 1.138422 0.485462 0.870934 1.153522 0.488489 0.870541 1.16632 0.497049 0.870336 1.174879 0.509854 0.874081 1.120679 0.494682 0.871032 1.170227 0.550228 0.873825 1.132084 0.497441 0.873612 1.14315 0.502757 0.873359 1.152897 0.510352 0.873122 1.160573 0.519991 0.872929 1.166342 0.530862 0.871429 1.169409 0.542586 0.875505 1.187594 0.520166 0.874775 1.185406 0.53704 0.876629 1.113603 0.489077 0.876257 1.127852 0.479522 0.875821 1.144682 0.476143 0.875387 1.161534 0.479466 0.87502 1.175839 0.488998 0.874775 1.185406 0.503292 0.880592 1.126177 0.494081 0.87583 1.173968 0.550072 0.880334 1.137262 0.495817 0.880011 1.147674 0.500841 0.879745 1.156819 0.507973 0.879551 1.164057 0.517053 0.879433 1.169525 0.527333 0.877927 1.172476 0.538659 0.870095 1.179189 0.524961 0.870256 1.176102 0.540575 0.872324 1.112859 0.493817 0.871919 1.122794 0.487231 0.871256 1.138417 0.484171 0.870731 1.154014 0.487289 0.870338 1.167234 0.49613 0.870112 1.176073 0.509356 0.874378 1.120326 0.495886 0.870443 1.169742 0.550099 0.874068 1.131661 0.498641 0.873814 1.14248 0.503846 0.873558 1.151999 0.511266 0.873337 1.159509 0.520693 0.873173 1.165164 0.531341 0.87167 1.168187 0.542914 0.87469 1.188768 0.520166 0.875597 1.184329 0.536586 0.868539 1.194093 0.540625 0.868533 1.198158 0.520166 0.868556 1.182513 0.557977 0.868581 1.165172 0.569586 0.875387 1.161534 0.560866 0.876645 1.144701 0.562105 0.868608 1.144701 0.573679 0.876971 1.128647 0.558923 0.868634 1.124215 0.569625 0.877255 1.115021 0.549852 0.868654 1.106835 0.558032 0.877605 1.105956 0.536224 0.868667 1.095216 0.540663 0.877822 1.102779 0.520166 0.868672 1.091135 0.520166 0.877765 1.105917 0.504397 0.868667 1.095216 0.499668 0.877563 1.114375 0.489826 0.868654 1.106835 0.4823 0.877172 1.12829 0.480525 0.868634 1.124215 0.470707 0.87671 1.144703 0.477259 0.868608 1.144701 0.466653 0.876249 1.161117 0.480525 0.868581 1.165172 0.470746 0.875858 1.175031 0.489826 0.868556 1.182513 0.482355 0.875597 1.184329 0.503746 0.868539 1.194093 0.499707 0.87502 1.175839 0.551334 0.876249 1.161117 0.559807 0.87671 1.144703 0.563073 0.877172 1.12829 0.559807 0.877563 1.114375 0.550506 0.877824 1.105078 0.536586 0.877916 1.101813 0.520166 0.877824 1.105078 0.503746 0.875144 1.143457 0.537662 0.875179 1.142207 0.543948 0.875279 1.138648 0.549277 0.875429 1.133321 0.552838 0.875605 1.127038 0.554088 0.875782 1.120754 0.552838 0.875932 1.115427 0.549277 0.876032 1.111868 0.543948 0.876067 1.110618 0.537662 0.876032 1.111868 0.531376 0.875932 1.115427 0.526047 0.875782 1.120754 0.522486 0.875605 1.127038 0.521236 0.875429 1.133321 0.522486 0.875279 1.138648 0.526047 0.875179 1.142207 0.531376 0.880207 1.136938 0.496708 0.88071 1.126045 0.493075 0.879882 1.147171 0.501645 0.87962 1.156149 0.508646 0.879433 1.163263 0.517572 0.879337 1.168634 0.527675 0.877873 1.171549 0.538872 0.875858 1.175031 0.550506 0.879248 1.114655 0.49918 0.876249 1.143488 0.537662 0.876284 1.142238 0.543948 0.876384 1.138679 0.549277 0.876534 1.133352 0.552838 0.87671 1.127069 0.554088 0.876887 1.120785 0.552838 0.877037 1.115458 0.549277 0.877137 1.111899 0.543948 0.877172 1.110649 0.537662 0.877137 1.111899 0.531376 0.877037 1.115458 0.526047 0.876887 1.120785 0.522486 0.87671 1.127069 0.521236 0.876534 1.133352 0.522486 0.876384 1.138679 0.526047 0.876284 1.142238 0.531376 0.869334 1.143294 0.537662 0.869369 1.142044 0.543948 0.869469 1.138485 0.549277 0.869619 1.133158 0.552838 0.869796 1.126874 0.554088 0.869972 1.120591 0.552838 0.870122 1.115264 0.549277 0.870222 1.111705 0.543948 0.870257 1.110455 0.537662 0.870222 1.111705 0.531376 0.870122 1.115264 0.526047 0.869972 1.120591 0.522486 0.869796 1.126874 0.521236 0.869619 1.133158 0.522486 0.869469 1.138485 0.526047 0.869369 1.142044 0.531376 0.83749 2.296135 0.615646 0.837489 2.296135 0.06771898 0.886757 0.469179 0.626945 0.886757 0.469178 0.06635296 0.89414 0.41025 0.659863 0.894015 0.414999 0.667516 0.843048 2.314142 0.628838 0.89285 0.455309 0.644128 0.843073 2.314142 0.347536 0.842823 2.344811 0.661581 0.843153 2.310232 0.633414 0.842931 2.340751 0.666403 0.842824 2.344848 0.363872 0.867992 1.383099 0.638769 0.868464 1.378215 0.666959 0.894124 0.40991 0.361694 0.892977 0.450747 0.636798 0.893172 0.450875 0.350292 0.893528 0.451001 0.06560999 0.824957 2.362816 0.679442 0.83749 2.296135 0.611235 0.837593 2.292302 0.61567 0.825066 2.35868 0.684407 0.886757 0.469179 0.619808 0.844418 2.321638 0.636497 0.844523 2.317693 0.641131 0.842825 2.344886 0.06704896 0.843262 2.314142 0.06696599 0.840625 2.341085 0.002807915 0.84134 2.317991 0.002239882 0.844252 2.314142 0.05313491 0.843992 2.314142 0.01173388 0.842496 2.344924 0.01239997 0.842825 2.344896 0.05351793 0.894606 0.409613 0.05530697 0.89416 0.450816 0.0188679 0.894299 0.409808 0.01930296 0.894513 0.450982 0.05202692 0.894179 0.409579 0.06604999 0.891195 0.445137 0.005456984 0.891891 0.415492 0.005353987 0.824957 2.362854 0.372783 0.83749 2.296135 0.338759 0.844449 2.321643 0.351357 0.843055 2.314142 0.556236 0.842824 2.34482 0.584744 0.862106 1.3833 0.621292 0.850921 1.378097 0.684593 0.869516 1.382154 0.645338 0.849415 2.076494 0.634764 0.849368 2.098088 0.666543 0.843091 2.314142 0.139592 0.842825 2.344876 0.1437979 0.865641 1.382738 0.013978 0.886637 0.473655 0.626917 0.876795 0.39682 0.684779 0.894526 0.445953 0.649548 0.886574 0.689539 0.642775 0.887564 0.658173 0.667375 0.886757 0.469179 0.341849 0.876922 0.391984 0.676905 0.894663 0.441355 0.642144 0.894136 0.410161 0.581493 0.893028 0.450781 0.561493 0.876891 0.391716 0.370163 0.895186 0.441714 0.352936 0.894112 0.409662 0.1431829 0.893315 0.45097 0.140327 0.850175 1.382738 -7.76e-4 0.862121 1.382738 0.06703597 0.867134 1.382738 0.0474289 0.82503 2.354605 3.06e-4 0.825494 2.303613 -0.00146389 0.824956 2.362894 0.06664097 0.837513 2.29526 0.06808996 0.876604 0.401166 0.001359999 0.875043 0.460357 9.6e-5 0.886733 0.470073 0.06693798 0.876861 0.391451 0.06536197 0.844521 2.321648 0.06711 0.842378 2.322611 0.00327599 0.892514 0.439576 0.006970942 0.842656 2.296596 0.04761391 0.841323 2.296596 0.008396983 0.890517 0.468738 0.01978695 0.891842 0.468738 0.04797893 0.824956 2.362909 0.05067396 0.824956 2.362944 0.01003992 0.876861 0.39145 0.0153039 0.876861 0.39145 0.05074691 0.8955 0.441848 0.01855999 0.844473 2.321652 0.01267492 0.844768 2.321649 0.05407798 0.895992 0.442048 0.05441397 0.895745 0.442067 0.06600898 0.824957 2.362826 0.600295 0.83749 2.296135 0.540911 0.844426 2.321639 0.562904 0.843773 2.063134 0.617087 0.831584 2.111466 0.684454 0.850824 2.081835 0.642191 0.824957 2.362883 0.146094 0.83749 2.296135 0.137337 0.844471 2.321646 0.140574 0.831819 2.063414 -0.001444995 0.843765 2.063414 0.06754499 0.847285 2.063414 0.009587943 0.848778 2.063414 0.04710888 0.880444 0.703304 0.625497 0.870263 0.644554 0.684732 0.888212 0.682307 0.648485 0.886757 0.469179 0.54675 0.876914 0.391914 0.596281 0.894801 0.44145 0.566129 0.876869 0.391519 0.1453689 0.89557 0.441977 0.140991 0.886757 0.469178 0.138148 0.868532 0.702043 -1.06e-4 0.880478 0.702043 0.066527 0.885491 0.702043 0.04774898 0.883997 0.702043 0.01836699 0.842825 2.344886 0.06704896 0.842825 2.344876 0.1437979 0.89414 0.41025 0.659863 0.894136 0.410161 0.581493 0.840625 2.341085 0.002807915 0.840625 2.341085 0.002807915 0.842496 2.344924 0.01239997 0.894015 0.414999 0.667516 0.894015 0.414999 0.667516 0.887564 0.658173 0.667375 0.876795 0.39682 0.684779 0.843992 2.314142 0.01173388 0.84134 2.317991 0.002239882 0.84134 2.317991 0.002239882 0.894179 0.409579 0.06604999 0.894606 0.409613 0.05530697 0.842825 2.344896 0.05351793 0.894299 0.409808 0.01930296 0.891891 0.415492 0.005353987 0.891891 0.415492 0.005353987 0.891195 0.445137 0.005456984 0.842823 2.344811 0.661581 0.842824 2.34482 0.584744 0.842931 2.340751 0.666403 0.842931 2.340751 0.666403 0.825066 2.35868 0.684407 0.849368 2.098088 0.666543 0.842824 2.344848 0.363872 0.868464 1.378215 0.666959 0.894124 0.40991 0.361694 0.894112 0.409662 0.1431829 0.825494 2.303613 -0.00146389 0.876604 0.401166 0.001359999 0.82503 2.354605 3.06e-4 0.842378 2.322611 0.00327599 0.890517 0.468738 0.01978695 0.841323 2.296596 0.008396983 0.847285 2.063414 0.009587943 0.875043 0.460357 9.6e-5 0.883997 0.702043 0.01836699 0.865641 1.382738 0.013978 0.871315 0.997822 0.663703 0.874895 0.861791 0.664786 0.835374 2.356725 0.326457 0.830906 2.314626 0.659191 0.884861 0.486892 0.666663 0.834492 2.344162 0.654337 0.847971 1.716982 0.66262 0.867653 1.137762 0.66262 0.879808 0.676692 0.665276 0.868929 1.089485 0.662981 0.835238 2.351635 0.571655 0.877316 0.770417 0.665269 0.833906 2.154779 0.661763 0.81156 2.344162 0.654337 0.845997 1.089485 0.662981 0.861929 0.486892 0.666663 0.856876 0.676692 0.665276 0.825039 1.716982 0.66262 0.872807 0.940898 0.664155 0.844721 1.137762 0.66262 0.807974 2.314626 0.659191 0.851963 0.861791 0.664786 0.812442 2.356725 0.326457 0.833069 2.332446 0.656262 0.887388 0.391991 0.668281 0.848383 0.997822 0.663703 0.870122 1.043653 0.663342 0.810974 2.154779 0.661762 0.839759 1.283791 0.66262 0.810138 2.332446 0.656262 0.812306 2.351635 0.571655 0.849875 0.940898 0.664154 0.854384 0.770417 0.665269 0.859403 0.581792 0.665507 0.864264 0.415716 0.667876 0.845082 1.12447 0.66271 0.812358 2.358673 0 0.84719 1.043653 0.663342 0.835289 2.358673 0 0.882335 0.581792 0.665507 0.834492 2.344162 0.654337 0.862691 1.283791 0.66262 0.868013 1.12447 0.66271 0.81156 2.344162 0.654337</float_array>
          <technique_common>
            <accessor source="#Roof_low_001-mesh-positions-array" count="438" stride="3">
              <param name="X" type="float"/>
              <param name="Y" type="float"/>
              <param name="Z" type="float"/>
            </accessor>
          </technique_common>
        </source>
        <source id="Roof_low_001-mesh-normals">
          <float_array id="Roof_low_001-mesh-normals-array" count="1440">0.9968382 -0.07731527 0.0183295 0.9871625 -0.0305311 0.1567737 0.9999511 -0.004171252 0.008972167 0.9994792 0.01617419 -0.02792441 0.9996763 0.02302402 -0.01082986 0.9958887 -0.03872811 0.08188921 0.8045126 0.2299748 0.547605 0.816646 0.4155629 0.4004958 0.8171837 0.4090314 0.4060841 0.9991865 0.02095043 -0.03446304 0.9981562 0.02428251 -0.05563008 0.9967706 0.04433768 -0.06695288 0.9882611 0.07405716 -0.1336253 0.02151221 0.51442 -0.8572686 0.3834196 -0.4789878 0.7896584 0.3194023 -0.7579137 0.5688139 -0.01507318 0.8623903 -0.5060195 0.985427 0.1634513 -0.04708826 0.9952765 0.09557312 -0.01704508 0.9962686 0.08622324 0.003819346 0.9985479 0.053855 0.001325547 0.9965358 -0.02424353 0.07955324 0.9990047 0.03325796 0.02972507 0.9935805 0.05258721 0.1001627 0.9914373 -0.07761186 0.1050171 0.9918908 -0.02392524 0.1248208 0.9897337 0.02506703 0.1407084 0.9904158 -0.01475256 0.1373282 0.9904354 -0.0294398 0.1347997 0.9905691 -0.04913508 0.1279014 0.9914142 -0.07742434 0.1053724 0.9912778 -0.0776326 0.1064974 0.9921643 -0.09740775 0.07824122 0.9928217 -0.1044564 0.05825853 0.9919463 -0.07592177 0.1013835 0.9705697 0.208999 0.1196412 0.9736343 0.2070788 0.09567999 0.9734148 0.2168667 0.07370406 0.0259236 -0.9235211 -0.3826709 0.0280413 -0.9996068 6.35933e-7 0.02804356 -0.9996068 1.21872e-6 0.8253885 0.5218979 0.2153058 0.8290873 0.5591192 -2.64579e-7 0.8282595 0.5603447 1.81447e-6 0.01983463 -0.7068333 -0.7071022 0.01073133 -0.3825257 -0.9238826 0.0198245 -0.7068637 -0.707072 -7.08697e-7 -2.51181e-5 -1 0.01073396 -0.3825301 -0.9238807 -0.0107268 0.3825274 -0.9238819 4.49399e-6 3.91908e-5 -1 -0.01983606 0.7068427 -0.7070927 -0.01075738 0.3825187 -0.9238852 -0.01982432 0.7068394 -0.7070963 -0.02628487 0.9234992 -0.3826988 -0.0280382 0.9996069 1.1292e-6 -0.02591967 0.923526 -0.3826593 -0.02629375 0.9234985 0.3827 -0.0280835 0.9996057 0 0.7504761 -0.6608977 -1.32899e-6 0.7540072 -0.6044449 -0.2571372 0.7513283 -0.6599287 -3.46722e-7 -0.01074153 0.3825274 0.9238818 4.81096e-6 2.35254e-5 1 -0.01075327 0.3825253 0.9238826 -4.50622e-6 -2.51253e-5 1 0.01074528 -0.38252 0.9238849 0.01982045 -0.7068334 0.7071024 0.01074385 -0.38253 0.9238807 0.02591514 -0.9235209 0.3826715 0.01981723 -0.7068637 0.7070721 0.02591878 -0.923519 0.3826759 0.9858273 0.1510242 -0.07304883 0.979676 0.2001018 -0.01393938 0.9796119 0.2006864 -0.009247422 0.7540047 -0.6044458 0.2571426 0.7536314 -0.6066732 0.2529573 0.8255917 0.5233317 0.2110037 0.7895777 0.003230094 0.6136421 0.803485 0.2407677 0.5444655 0.982477 0.07071697 -0.1724477 0.9638836 -0.03536796 -0.2639648 0.984206 0.04626578 -0.1708742 0.7746618 -0.2391453 0.5854132 0.7883242 0.01530975 0.6150697 0.9877672 0.09483718 -0.1237811 0.9880569 0.08724915 -0.1270093 0.7621671 -0.4560369 0.4594907 0.7735366 -0.2293921 0.5907795 0.9882252 0.1208207 -0.09387981 0.9882209 0.1212093 -0.09342283 0.7616022 -0.4504421 0.4659016 0.9860817 0.1553757 -0.05917215 0.7621596 -0.4560344 -0.4595055 0.7735325 -0.2293875 -0.5907868 0.7616018 -0.4504382 -0.4659059 0.7746459 -0.2391701 -0.5854241 0.7883284 0.0153138 -0.6150642 0.7895869 0.003230273 -0.6136304 0.8034847 0.240769 -0.5444656 0.8045154 0.2299672 -0.547604 0.8166415 0.4155693 -0.4004985 0.8171884 0.4090194 -0.4060866 0.8255883 0.5233362 -0.2110052 0.9605402 -0.05446839 -0.2727561 0.9339823 -0.1694478 -0.3145865 0.02592027 -0.9235169 -0.3826813 -0.01981782 0.7068394 0.7070964 -0.02591854 0.9235273 0.3826562 -0.01983636 0.7068427 0.7070926 0.7535672 -0.6067277 -0.2530184 0.8253797 0.521915 -0.2152982 0.9153293 -0.1102457 -0.3873219 0.5443855 0.2160947 -0.810523 0.9880225 -0.1520513 -0.02630883 0.9144232 -0.3814922 -0.1352549 0.8311244 -0.555449 -0.02662193 0.749706 -0.6180675 -0.236503 0.7087433 -0.6289325 -0.3195728 0.5152864 0.3977338 0.7591364 -0.1461653 0.988727 0.03247445 0.6154279 0.2849814 0.7348702 0.753764 0.06106245 0.6543022 0.77521 5.56128e-5 0.6317036 0.8407018 -0.1682199 0.5147065 0.8438013 -0.1955173 0.4997724 0.8715203 -0.3314349 0.3613908 0.8698863 -0.3383026 0.3589556 0.8689874 -0.4512535 0.2030546 0.8697773 -0.4563619 0.1876735 0.8375368 -0.5461844 0.01465851 -0.6122645 0.2939851 -0.7339653 -0.1225204 0.9919275 -0.03269213 0.0359978 0.1170914 -0.9924685 -0.01931262 0.1510591 -0.9883361 -0.5674203 0.2458334 -0.7858754 -0.5753715 0.2512865 -0.7783333 -0.6406213 0.3821222 -0.6660233 -0.5844073 0.2712008 -0.7647995 -0.6760146 0.5048826 -0.5367477 -0.6451612 0.3980555 -0.6521648 -0.681715 0.6072037 -0.408128 -0.6758308 0.5114974 -0.5306818 -0.668909 0.6720815 -0.3175961 -0.6818295 0.6051225 -0.4110176 -0.667369 0.6783817 -0.3072735 -0.6616701 0.6990098 -0.2712527 -0.6640121 0.6983981 -0.2670735 0.9491711 -0.2839321 -0.1358563 0.915988 0.1912997 0.352662 0.9493218 0.04054385 0.3116798 0.9671356 -0.0684905 0.244863 0.9747579 -0.1431899 0.1713003 0.9759668 -0.1987898 0.0892831 0.9707726 -0.2398799 -0.00763005 0.2648969 0.204865 -0.9422633 0.5439465 0.7379085 -0.3995163 0.488243 0.4790262 -0.729488 0.3964998 0.3156341 -0.862069 0.3736569 0.4919394 -0.786369 0.3564679 0.6611825 -0.6601276 0.3095685 0.8937924 -0.3245035 0.3401567 0.7893308 -0.5111265 0.3089295 0.9341585 -0.178635 0.9999538 0.008486032 -0.004544854 0.9988871 0.0346176 0.03203517 0.9977903 0.02497732 -0.06156992 0.9940198 0.06297093 -0.08921569 0.9927138 0.09742635 -0.07090532 0.9938393 0.1058742 -0.03277415 0.9970269 0.07704901 9.85657e-4 0.9652368 0.2505411 0.07447963 0.4912521 0.3112848 -0.8134945 0.4578716 0.4805692 -0.7479351 0.4332864 0.7554208 -0.4915305 0.4354507 0.6394698 -0.6336097 0.4351139 0.8884543 -0.1460303 0.4519724 0.8418216 -0.2950551 0.8186408 0.5306643 0.2195969 0.8102075 0.4147808 0.4141506 0.7972701 0.23168 0.5573911 0.9383884 0.1538746 0.3094348 0.7822411 8.06796e-4 0.6229755 0.9404731 0.02500277 0.3389471 0.7673453 -0.2446591 0.5927252 0.9558101 -0.09155857 0.2793637 0.7551704 -0.4631054 0.4639515 0.9668892 -0.1668897 0.1930629 0.7469053 -0.6141728 0.2548027 0.9536097 -0.2734645 0.1258801 0.7437939 -0.6684091 -3.48181e-6 0.9344626 -0.3560611 3.98541e-4 0.7467806 -0.6143212 -0.2548103 0.7551602 -0.4631071 -0.4639668 0.7673184 -0.2447017 -0.5927424 0.782256 8.06792e-4 -0.6229568 0.7972761 0.2316641 -0.5573891 0.8102163 0.4147597 -0.4141545 0.81862 0.5307026 -0.2195814 0.8217497 0.5698488 3.98909e-6 0.7623514 -0.5972078 -0.2493255 0.7306009 -0.6828014 0.002181231 0.7673107 -0.4411456 -0.4654298 0.7478407 -0.2342313 -0.6211844 0.7251454 0.02742147 -0.6880496 0.665314 0.3067751 -0.6806221 0.652724 0.7006781 -0.2881 0.6141217 0.5667268 -0.5492498 0.7056573 0.7085162 -0.007259309 0.734247 0.6315951 0.2489356 0.7339124 0.4867713 0.4737366 0.7060903 0.2858809 0.6478492 0.6971714 0.01921898 0.7166469 0.7077851 -0.4896908 0.5091593 0.7023733 -0.2555436 0.6643562 0.7137893 -0.6440245 0.2752041 0.02802801 -0.9996072 -1.38677e-6 0.01981353 -0.7068743 -0.7070617 0.0259211 -0.9235094 -0.3826988 0.01071566 -0.3825486 -0.9238733 -3.84206e-6 3.5164e-5 -1 -0.01987707 0.7068309 -0.7071033 -0.01078963 0.3825309 -0.9238798 -0.02664583 0.9235059 -0.3826578 -0.02666449 0.9235054 0.3826576 -0.02803766 0.9996069 0 -0.01987892 0.7068309 0.7071033 -0.01078081 0.3825383 0.9238767 2.01704e-6 5.47475e-6 1 0.01073765 -0.3825238 0.9238833 0.019791 -0.7068745 0.7070621 0.02591937 -0.9235144 0.3826871 0.2483191 0.03561878 -0.9680233 0.1898553 0.03274327 -0.981266 0.1988566 0.03025001 -0.9795616 0.9644727 0.2588448 0.05283933 0.9408953 0.3386942 0.001608967 0.9566066 0.2913787 0.001526772 0.9986475 -0.04770189 0.02068454 0.995003 0.09983319 0.001583695 0.999012 -0.04442495 0.001267969 0.9788141 0.1985964 -0.04982525 0.9660333 0.1065962 -0.2354083 0.9773788 0.09501761 -0.1889505 0.954999 -0.296606 0.001365542 0.9748327 -0.2211029 0.02854508 0.9709718 -0.2391933 7.49367e-4 0.9984611 -0.05545622 2.37065e-4 0.9970909 0.07614821 0.003365039 0.9975017 0.07064253 5.80168e-5 0.7274128 -0.6862 6.07963e-4 0.7261981 -0.6874852 7.45434e-4 0.9994702 -0.03253197 9.38414e-4 0.9965387 0.08312559 9.81664e-4 0.9997966 -0.02015393 8.68808e-4 0.9983192 0.05694991 -0.01074796 0.9998801 -0.01013624 0.0117042 0.7775323 -0.6162641 0.1251485 0.7276052 -0.6859958 7.02248e-4 0.7275378 -0.6860673 7.41322e-4 0.6970578 -0.5942583 -0.4012076 0.7221323 -0.6642776 -0.1930294 0.7316288 -0.6506698 -0.2033421 0.9774745 -0.1594426 0.1382812 0.9946182 0.02640688 0.1001859 0.9938573 -0.05308687 0.0971055 0.9885514 0.06627464 -0.1355509 0.8677635 0.2360399 -0.4373461 0.9719501 0.1761726 -0.1558085 0.7841398 0.1614507 -0.5992149 0.7195765 0.2193794 -0.6588492 0.9755446 -0.03193855 -0.217469 0.9048172 0.04839038 -0.4230418 0.9941171 0.02710992 0.1048638 0.9612389 0.2227983 0.1624214 0.9891971 0.120691 0.08320301 0.9435633 0.3311922 4.75626e-4 0.9618538 0.2735629 9.06676e-4 0.7005208 0.01854681 0.713391 0.6981509 0.01856124 0.71571 0.7006263 0.01899993 0.7132755 0.9988639 0.0475471 -0.003203392 0.9972787 0.02684158 0.06866449 0.99944 0.00254476 0.03336685 0.9921979 0.1155615 -0.04678463 0.9983442 0.02723926 -0.05066573 0.7664713 0.01713961 -0.6420499 0.7666615 0.01703417 -0.6418255 0.7098866 0.7043158 6.62119e-4 0.7100832 0.7041146 -0.002104043 0.7112881 0.7028992 -0.001412034 0.9841896 -0.1658341 -0.06220835 0.9984335 -0.05595237 6.86767e-5 0.9997571 -0.007406532 -0.02076011 0.9984177 0.05473351 0.01289826 0.9995656 0.006354331 -0.02878427 0.9646394 0.02440416 -0.2624408 0.9661748 -0.04924118 -0.2531434 0.9831525 -0.04630875 -0.1768243 0.7960081 0.5589987 0.232146 0.8160165 0.451264 0.3612172 0.7728227 0.6161773 0.1518897 0.9955555 0.02591514 -0.09054207 0.9590443 0.02417141 -0.2822228 0.6150642 0.03841298 -0.7875408 0.2699826 1.272e-4 -0.9628652 0.2955042 -0.009048461 -0.9552986 0.2447672 0.00911802 -0.9695391 0.7167191 0.01927226 0.6970956 0.719154 0.01909381 0.6945884 0.9998841 -0.004152357 0.01465117 0.9988421 -0.04702866 0.01014262 0.6531778 0.5977654 -0.464796 0.6967672 0.6846073 -0.2140756 0.63809 0.6638237 -0.3901018 0.986329 0.1622782 0.02865058 0.583428 -0.08418512 -0.8077901 0.7486619 -0.1838958 -0.6369362 0.9497235 -0.0872839 -0.3006776 0.7178203 -0.6962204 -0.003347158 0.7185652 -0.6954379 0.005513429 0.9972504 0.07264763 0.01463383 0.9949983 0.09908962 0.0126338 0.9923431 -0.07879716 -0.0951116 0.9909349 -0.1206067 0.05918037 0.7113094 0.7028776 -0.001443803 0.7131087 0.6650916 -0.221651 0.998872 0.02644467 -0.03943926 0.9979531 -0.05421364 -0.03392118 0.9928537 0.00771743 -0.1190886 0.996506 0.08343881 -0.003710269 0.9658551 0.02633106 0.2577417 0.9943593 0.02672278 0.102643 0.9685297 0.02608245 0.247528 0.9986512 0.02677291 -0.04448682 0.7202256 -0.6937283 0.004024207 0.7245456 -0.6892265 6.74254e-4 0.724891 -0.6888635 5.12941e-4 0.9988949 -0.04490387 0.01388418 0.9667261 0.2558123 9.29224e-4 0.958338 0.2820432 -0.04516696 0.9619807 -0.1070648 -0.251258 0.974439 -0.03920674 -0.2212046 0.9954954 -0.04073232 -0.08561557 0.5795206 0.01282846 -0.8148568 0.4877933 -0.1155978 -0.8652716 0.7098492 0.7043537 9.10136e-5 0.9710868 -0.2387269 6.36008e-5 0.998445 -0.05574625 7.07448e-5 0.9712556 -0.2380396 6.71012e-5 0.9479482 0.02357441 -0.3175507 0.9622667 0.02423298 -0.271027 0.9553925 -0.2953394 5.64678e-5 0.9987703 0.0267474 0.04174542 0.9988417 0.04052495 0.02594494 0.9689306 -0.2397701 -0.06069594 0.9963384 0.02606683 -0.08142673 0.722746 -0.6909751 0.01384782 0.8001085 -0.5647023 0.2023306 0.819281 -0.481378 0.3115351 0.8194761 -0.4823748 0.3094732 0.998207 0.02689957 0.05347228 0.997562 0.06978577 7.30895e-5 0.997628 0.06883788 7.13825e-5 0.7098639 0.704339 8.77651e-5 0.9551296 -0.2961884 5.0243e-5 0.6910778 0.01593911 -0.7226046 0.9960081 0.02611917 -0.08535587 0.9471026 0.02353715 -0.3200668 0.7009181 0.01862341 0.7129986 0.7087392 0.01919937 0.7052093 0.700525 0.01893293 0.7133767 0.7164305 0.01902896 0.6973989 0.71656 0.01902592 0.6972661 0.9958345 0.09117436 0.0010643 0.7260898 -0.6875996 6.26986e-4 0.7249047 -0.6888488 7.42038e-4 0.7098845 0.7043181 9.43277e-5 0.7098831 0.7043196 9.63651e-5 0.9463092 0.3232625 5.32785e-4 0.9708832 0.02581167 0.2381588 0.6892577 0.01590704 -0.7243417 0.5818473 0.01279956 -0.8131973 0.7098433 0.7043597 8.80124e-5 0.9724305 0.08163917 -0.2184355 0.9912565 0.08299684 -0.1025776 0.9996366 0.02695745 -1.74099e-6 0 -0.1621285 -0.9867697 0 -0.9999108 -0.01336181 0 -0.9999822 -0.005968391 0 -0.9999108 -0.0133605 2.46917e-7 -0.002745568 -0.9999963 0 -0.006580591 -0.9999784 0 -0.002697587 -0.9999964 1.62363e-7 -0.01452875 -0.9998946 0 -0.007389724 -0.9999728 2.09796e-6 -0.01462465 -0.9998931 0 0 -1 0 -9.58767e-4 -0.9999996 0 -0.9959405 -0.09001505 0 -0.9984575 -0.05552119 0 -0.9984692 -0.05531144 0 -0.007265508 -0.9999737 0 -0.007744908 -0.99997 0 -0.007265508 -0.9999736 2.09399e-5 -0.01704657 -0.9998548 2.38447e-6 -0.01469796 -0.999892 0 -0.007876813 -0.999969 0 -0.007106661 -0.9999748 -2.15725e-7 -0.003463447 -0.9999941 0 -0.007250487 -0.9999738 1.95158e-6 -0.09162163 -0.9957939 0 -0.1621909 -0.9867595 0 -0.1621907 -0.9867594 0 -0.007224798 -0.9999739 0 -0.001283884 -0.9999992 8.12355e-7 -0.001190483 -0.9999994 4.24207e-5 -0.008909225 -0.9999603 0 -9.98748e-4 -0.9999996 3.99519e-5 -0.007938683 -0.9999685 -2.17115e-7 -0.0033077 -0.9999945 -1.20406e-7 -0.003451526 -0.999994 0 -0.007876992 -0.999969 0 -0.001224875 -0.9999993 0 -0.002615094 -0.9999966 0 -0.001272857 -0.9999992 4.11208e-5 -0.009137749 -0.9999583 4.42084e-6 -0.006681621 -0.9999778 0 -0.007975935 -0.9999683 0 -0.006585717 -0.9999783 0.1965476 0.03579962 -0.9798406 0.727448 -0.6861627 5.26842e-4 0.7262656 -0.687414 6.48083e-4 0.6844207 -0.6262487 -0.3733378 0.7005927 0.01885086 0.7133124 0.6980367 0.01854079 0.7158219 0.7098358 0.7043671 5.42626e-4 0.7098392 0.7043638 2.07087e-4 0.71008 0.704118 -0.002070784 0.8161864 0.4526216 0.359129 0.3045207 -0.01230865 -0.9524263 0.7167832 0.0191003 0.6970344 0.7165328 0.0191763 0.6972897 0.7190254 0.01911026 0.694721 0.7100842 0.7041137 -0.002113759 0.7098673 0.7043355 9.19916e-5 0.9475168 0.02357995 -0.3188352 0.7098809 0.7043218 8.6493e-5 0.7087388 0.01920783 0.7052094 0.726144 -0.6875424 5.31371e-4 0.7249912 -0.688758 6.22221e-4 0.7098483 0.7043547 9.24135e-5 0.9996367 0.02695691 0 0 -0.162132 -0.9867691 0 -0.9999822 -0.005968511 0 -0.002745568 -0.9999963 4.61913e-6 -0.006676435 -0.9999777 -1.30472e-7 -0.006628513 -0.9999781 6.96221e-7 -9.10828e-4 -0.9999996 0 -9.10829e-4 -0.9999996 0 -0.9959405 -0.09001499 0 -0.007265508 -0.9999736 0 -0.007744848 -0.99997 0 -0.01703989 -0.9998549 0 -0.01459532 -0.9998935 1.97429e-6 -0.01469123 -0.9998921 0 -0.007876873 -0.999969 0 -0.007250308 -0.9999737 0 -0.003319442 -0.9999946 0 -0.003463268 -0.9999941 0 -0.08692657 -0.9962148 0 -0.001140058 -0.9999994 0 -0.007922053 -0.9999687 0 -0.0033077 -0.9999945 0 -0.007877111 -0.9999691 0 -0.001224875 -0.9999993 -1.47065e-7 -0.002710998 -0.9999964 0 -0.002615094 -0.9999966 1.38677e-5 -0.006645858 -0.999978 4.92833e-5 -0.007987618 -0.9999682</float_array>
          <technique_common>
            <accessor source="#Roof_low_001-mesh-normals-array" count="480" stride="3">
              <param name="X" type="float"/>
              <param name="Y" type="float"/>
              <param name="Z" type="float"/>
            </accessor>
          </technique_common>
        </source>
        <source id="Roof_low_001-mesh-map-0">
          <float_array id="Roof_low_001-mesh-map-0-array" count="3984">0.6917151 0.4165427 0.6896427 0.4151983 0.6921369 0.4160684 0.6914076 0.4138845 0.6927497 0.4158098 0.6895316 0.4139532 0.6916933 0.4123705 0.6893964 0.4136732 0.6892823 0.412257 0.693411 0.41583 0.6929854 0.4145203 0.6940191 0.416105 0.6940191 0.416105 0.6941378 0.4157022 0.6944354 0.4166051 0.6944354 0.4166051 0.6946672 0.4171978 0.6946484 0.41721 0.694639 0.4178203 0.6946672 0.4171978 0.6946549 0.4187538 0.6944187 0.4184302 0.6946549 0.4187538 0.6939399 0.4202417 0.6939275 0.418881 0.6939399 0.4202417 0.6926881 0.421327 0.6926881 0.421327 0.6933054 0.419104 0.6939275 0.418881 0.6926523 0.4190559 0.6916704 0.4210581 0.6905705 0.4206021 0.6920895 0.4187505 0.6905705 0.4206021 0.6901004 0.4197769 0.6917028 0.4182773 0.6901004 0.4197769 0.6897363 0.4189308 0.6914914 0.4177196 0.6897363 0.4189308 0.6895135 0.4180394 0.6914914 0.4177196 0.6894461 0.4171306 0.6914856 0.4171108 0.6914856 0.4171108 0.6895191 0.4162177 0.6917151 0.4165427 0.6888782 0.4146192 0.6888412 0.4148707 0.6883536 0.4147273 0.6922508 0.4162291 0.6922294 0.4168704 0.691869 0.4166387 0.6868232 0.4127999 0.685895 0.4151244 0.684897 0.4143186 0.6927853 0.4160029 0.6932625 0.4164589 0.6928674 0.4164483 0.6938954 0.4162651 0.6932625 0.4164589 0.6933661 0.4160184 0.694268 0.4167021 0.6936162 0.4166351 0.6938954 0.4162651 0.694268 0.4167021 0.6940311 0.417311 0.6938788 0.4169384 0.6944665 0.417239 0.6940361 0.4176997 0.6940311 0.417311 0.6942521 0.4183195 0.6940361 0.4176997 0.6944546 0.4177865 0.6942521 0.4183195 0.6935896 0.418335 0.6938816 0.4180634 0.6952442 0.4212068 0.6927839 0.4215601 0.694138 0.4203931 0.6927058 0.4188722 0.6924759 0.418263 0.6928298 0.4184304 0.6922085 0.4186041 0.6922113 0.4179778 0.6924759 0.418263 0.6916667 0.417687 0.6922113 0.4179778 0.6918529 0.4181895 0.6916663 0.4171447 0.6920812 0.4176141 0.6916667 0.417687 0.6916663 0.4171447 0.6922294 0.4168704 0.6920895 0.4172266 0.6884717 0.4170615 0.6872729 0.4155948 0.6886194 0.4158776 0.6952442 0.4212068 0.6948873 0.41881 0.6961662 0.4190979 0.6892823 0.412257 0.6873701 0.4139468 0.6868232 0.4127999 0.693814 0.4132613 0.6914525 0.4136404 0.6916933 0.4123705 0.6894888 0.4205099 0.689544 0.4216606 0.6882524 0.4212298 0.6953809 0.4148727 0.6931231 0.414313 0.693814 0.4132613 0.6889352 0.4194883 0.6882524 0.4212298 0.6871443 0.4201464 0.6961696 0.4169163 0.6943409 0.4155728 0.6953809 0.4148727 0.6885578 0.4182958 0.6871443 0.4201464 0.6865393 0.4186416 0.6886194 0.4158776 0.6883536 0.4147273 0.6888412 0.4148707 0.6961662 0.4190979 0.6948969 0.417158 0.6961696 0.4169163 0.6885578 0.4182958 0.6865895 0.417013 0.6884717 0.4170615 0.6911337 0.4237501 0.6888132 0.4225695 0.6907469 0.4222494 0.6886165 0.4239369 0.6870767 0.4219463 0.6888132 0.4225695 0.6863221 0.4230778 0.6857138 0.4206117 0.6870767 0.4219463 0.6845765 0.4213338 0.6849925 0.4188107 0.6857138 0.4206117 0.6836773 0.4190161 0.6850528 0.416865 0.6849925 0.4188107 0.689544 0.4216606 0.6900047 0.4212921 0.6900888 0.4215728 0.6922508 0.4162291 0.6928674 0.4164483 0.6925036 0.4165977 0.6895316 0.4139532 0.6921369 0.4160684 0.6896427 0.4151983 0.6932789 0.4189092 0.6935896 0.418335 0.6938263 0.4187161 0.6927058 0.4188722 0.6932175 0.41846 0.6932789 0.4189092 0.6934911 0.4228125 0.6907469 0.4222494 0.6927839 0.4215601 0.6837864 0.4165294 0.685895 0.4151244 0.6850528 0.416865 0.6907025 0.422085 0.6905096 0.4206711 0.6916401 0.4211486 0.692713 0.4214365 0.6907025 0.422085 0.6916401 0.4211486 0.6871119 0.4154686 0.6874657 0.4141669 0.688282 0.4145782 0.6895277 0.421824 0.6906081 0.422008 0.6888372 0.4223372 0.6881451 0.4214013 0.6888372 0.4223372 0.6872069 0.4217445 0.6869631 0.4202669 0.6872069 0.4217445 0.6859197 0.4204763 0.6863201 0.4186804 0.6859197 0.4204763 0.6852378 0.4187681 0.6863201 0.4186804 0.6852939 0.4169241 0.6863762 0.4169611 0.6863762 0.4169611 0.6860871 0.4152756 0.6871119 0.4154686 0.6901383 0.4212343 0.6906081 0.422008 0.6902016 0.4216521 0.688282 0.4145782 0.6893425 0.4139505 0.6889725 0.4144988 0.6896415 0.4204205 0.6904469 0.420693 0.6901383 0.4212343 0.6891165 0.4194123 0.6899736 0.4198401 0.6896415 0.4204205 0.6887621 0.4182567 0.6896014 0.4189769 0.6891165 0.4194123 0.6886625 0.4170659 0.68937 0.4180625 0.6887621 0.4182567 0.6886625 0.4170659 0.6893735 0.4162037 0.6893091 0.4171301 0.6888062 0.4159082 0.6894829 0.4151979 0.6893735 0.4162037 0.688992 0.4148903 0.6893425 0.4139505 0.6894829 0.4151979 0.6872729 0.4155948 0.6883074 0.4146315 0.6883536 0.4147273 0.6900888 0.4215728 0.6895335 0.421763 0.689544 0.4216606 0.6882524 0.4212298 0.6895335 0.421763 0.6881851 0.421338 0.6871443 0.4201464 0.6881851 0.421338 0.6870304 0.4202224 0.6865393 0.4186416 0.6870304 0.4202224 0.686401 0.4186662 0.6865393 0.4186416 0.6864554 0.4169803 0.6865895 0.417013 0.6865895 0.417013 0.6871715 0.4155152 0.6872729 0.4155948 0.6900888 0.4215728 0.6900891 0.421254 0.6901608 0.4216209 0.6888782 0.4146192 0.6883074 0.4146315 0.6889437 0.4145449 0.6900047 0.4212921 0.6895855 0.4204527 0.6900891 0.421254 0.6894888 0.4205099 0.6890496 0.4194399 0.6895855 0.4204527 0.6889352 0.4194883 0.6886868 0.4182711 0.6890496 0.4194399 0.6884717 0.4170615 0.6886868 0.4182711 0.6885578 0.4182958 0.6884717 0.4170615 0.6887373 0.4158977 0.6885926 0.4170644 0.6888412 0.4148707 0.6887373 0.4158977 0.6886194 0.4158776 0.6888782 0.4146192 0.6889322 0.4148854 0.6888412 0.4148707 0.6860871 0.4152756 0.6874328 0.4140973 0.6874657 0.4141669 0.6888372 0.4223372 0.6907025 0.422085 0.6888266 0.4224116 0.6872069 0.4217445 0.6888266 0.4224116 0.6871612 0.4218143 0.6859197 0.4204763 0.6871612 0.4218143 0.6858479 0.4205233 0.6852378 0.4187681 0.6858479 0.4205233 0.6851522 0.4187831 0.6852378 0.4187681 0.6852097 0.4169037 0.6852939 0.4169241 0.6852939 0.4169241 0.6860199 0.4152234 0.6860871 0.4152756 0.6904469 0.420693 0.6907025 0.422085 0.6906081 0.422008 0.6874657 0.4141669 0.6894084 0.4138447 0.6893425 0.4139505 0.6904469 0.420693 0.69003 0.419812 0.6905096 0.4206711 0.6896014 0.4189769 0.69003 0.419812 0.6899736 0.4198401 0.68937 0.4180625 0.6896614 0.4189562 0.6896014 0.4189769 0.68937 0.4180625 0.6893699 0.4171303 0.6894342 0.4180521 0.6893735 0.4162037 0.6893699 0.4171303 0.6893091 0.4171301 0.6893735 0.4162037 0.6895531 0.4151973 0.6894382 0.4162099 0.6893425 0.4139505 0.6895531 0.4151973 0.6894829 0.4151979 0.688282 0.4145782 0.6871715 0.4155152 0.6871119 0.4154686 0.6902016 0.4216521 0.6895335 0.421763 0.6901608 0.4216209 0.6895277 0.421824 0.6881851 0.421338 0.6895335 0.421763 0.6881451 0.4214013 0.6870304 0.4202224 0.6881851 0.421338 0.6869631 0.4202669 0.686401 0.4186662 0.6870304 0.4202224 0.6863762 0.4169611 0.686401 0.4186662 0.6863201 0.4186804 0.6871119 0.4154686 0.6864554 0.4169803 0.6863762 0.4169611 0.6902016 0.4216521 0.6900891 0.421254 0.6901383 0.4212343 0.6889725 0.4144988 0.6883074 0.4146315 0.688282 0.4145782 0.6896415 0.4204205 0.6900891 0.421254 0.6895855 0.4204527 0.6896415 0.4204205 0.6890496 0.4194399 0.6891165 0.4194123 0.6891165 0.4194123 0.6886868 0.4182711 0.6887621 0.4182567 0.6886625 0.4170659 0.6886868 0.4182711 0.6885926 0.4170644 0.6886625 0.4170659 0.6887373 0.4158977 0.6888062 0.4159082 0.688992 0.4148903 0.6887373 0.4158977 0.6889322 0.4148854 0.688992 0.4148903 0.6889437 0.4145449 0.6889725 0.4144988 0.6873701 0.4139468 0.6860199 0.4152234 0.685895 0.4151244 0.684897 0.4143186 0.6867495 0.412644 0.6868232 0.4127999 0.6868232 0.4127999 0.6892675 0.4120893 0.6892823 0.412257 0.6892823 0.412257 0.6917282 0.4122126 0.6916933 0.4123705 0.6931231 0.414313 0.6914253 0.413778 0.6914525 0.4136404 0.6916933 0.4123705 0.693902 0.4131313 0.693814 0.4132613 0.6943409 0.4155728 0.693041 0.4144371 0.6931231 0.414313 0.693814 0.4132613 0.6955096 0.4147894 0.6953809 0.4148727 0.6948969 0.417158 0.6942197 0.4156501 0.6943409 0.4155728 0.6953809 0.4148727 0.6963177 0.4168884 0.6961696 0.4169163 0.6948873 0.41881 0.6947588 0.417182 0.6948969 0.417158 0.6961696 0.4169163 0.6963177 0.4191303 0.6961662 0.4190979 0.694138 0.4203931 0.6947484 0.4187771 0.6948873 0.41881 0.6961662 0.4190979 0.695376 0.4213014 0.6952442 0.4212068 0.694138 0.4203931 0.692713 0.4214365 0.6940191 0.4203023 0.6934911 0.4228125 0.695376 0.4213014 0.6935797 0.4229559 0.6927839 0.4215601 0.6907025 0.422085 0.692713 0.4214365 0.6911337 0.4237501 0.6935797 0.4229559 0.6911725 0.4239191 0.6907469 0.4222494 0.6888266 0.4224116 0.6907025 0.422085 0.6886165 0.4239369 0.6911725 0.4239191 0.6885921 0.4241074 0.6888132 0.4225695 0.6871612 0.4218143 0.6888266 0.4224116 0.6863221 0.4230778 0.6885921 0.4241074 0.6862293 0.4232209 0.6870767 0.4219463 0.6858479 0.4205233 0.6871612 0.4218143 0.6845765 0.4213338 0.6862293 0.4232209 0.6844325 0.4214271 0.6857138 0.4206117 0.6851522 0.4187831 0.6858479 0.4205233 0.6836773 0.4190161 0.6844325 0.4214271 0.6835072 0.4190438 0.6849925 0.4188107 0.6852097 0.4169037 0.6851522 0.4187831 0.6837864 0.4165294 0.6835072 0.4190438 0.6836199 0.4164857 0.6850528 0.416865 0.6860199 0.4152234 0.6852097 0.4169037 0.684897 0.4143186 0.6836199 0.4164857 0.6847645 0.4142106 0.6893964 0.4136732 0.6874328 0.4140973 0.6873701 0.4139468 0.6914525 0.4136404 0.6894084 0.4138447 0.6893964 0.4136732 0.6914076 0.4138845 0.693041 0.4144371 0.6929854 0.4145203 0.6929854 0.4145203 0.6942197 0.4156501 0.6941378 0.4157022 0.6941378 0.4157022 0.6947588 0.417182 0.6946672 0.4171978 0.6946549 0.4187538 0.6947588 0.417182 0.6947484 0.4187771 0.6939399 0.4202417 0.6947484 0.4187771 0.6940191 0.4203023 0.6926881 0.421327 0.6940191 0.4203023 0.692713 0.4214365 0.6917151 0.4165427 0.6921907 0.4161435 0.6917891 0.4165883 0.6927497 0.4158098 0.6921907 0.4161435 0.6921369 0.4160684 0.693411 0.41583 0.6927663 0.415901 0.6927497 0.4158098 0.6940191 0.416105 0.6933891 0.4159204 0.693411 0.41583 0.6944354 0.4166051 0.6939613 0.4161788 0.6940191 0.416105 0.6946484 0.41721 0.6943539 0.4166518 0.6944354 0.4166051 0.6946484 0.41721 0.6945477 0.4178043 0.6945642 0.4172234 0.694639 0.4178203 0.694341 0.4183793 0.6945477 0.4178043 0.6944187 0.4184302 0.6938785 0.4188019 0.694341 0.4183793 0.6939275 0.418881 0.693293 0.4190108 0.6938785 0.4188019 0.6926523 0.4190559 0.693293 0.4190108 0.6933054 0.419104 0.6920895 0.4187505 0.6926783 0.4189693 0.6926523 0.4190559 0.6917028 0.4182773 0.6921449 0.4186835 0.6920895 0.4187505 0.6917028 0.4182773 0.6915736 0.4177038 0.6917734 0.4182361 0.6914914 0.4177196 0.6915689 0.4171259 0.6915736 0.4177038 0.6914856 0.4171108 0.6917891 0.4165883 0.6915689 0.4171259 0.6905705 0.4206021 0.69003 0.419812 0.6901004 0.4197769 0.6897363 0.4189308 0.69003 0.419812 0.6896614 0.4189562 0.6895135 0.4180394 0.6896614 0.4189562 0.6894342 0.4180521 0.6895135 0.4180394 0.6893699 0.4171303 0.6894461 0.4171306 0.6895191 0.4162177 0.6893699 0.4171303 0.6894382 0.4162099 0.6895191 0.4162177 0.6895531 0.4151973 0.6896427 0.4151983 0.6895316 0.4139532 0.6895531 0.4151973 0.6894084 0.4138447 0.6895316 0.4139532 0.6914253 0.413778 0.6914076 0.4138845 0.6905705 0.4206021 0.6916401 0.4211486 0.6905096 0.4206711 0.6926881 0.421327 0.6916401 0.4211486 0.6916704 0.4210581 0.691869 0.4166387 0.6921907 0.4161435 0.6922508 0.4162291 0.6927853 0.4160029 0.6921907 0.4161435 0.6927663 0.415901 0.6933661 0.4160184 0.6927663 0.415901 0.6933891 0.4159204 0.6933661 0.4160184 0.6939613 0.4161788 0.6938954 0.4162651 0.694268 0.4167021 0.6939613 0.4161788 0.6943539 0.4166518 0.6944665 0.417239 0.6943539 0.4166518 0.6945642 0.4172234 0.6944546 0.4177865 0.6945642 0.4172234 0.6945477 0.4178043 0.6944546 0.4177865 0.694341 0.4183793 0.6942521 0.4183195 0.6938263 0.4187161 0.694341 0.4183793 0.6938785 0.4188019 0.6938263 0.4187161 0.693293 0.4190108 0.6932789 0.4189092 0.6932789 0.4189092 0.6926783 0.4189693 0.6927058 0.4188722 0.6927058 0.4188722 0.6921449 0.4186835 0.6922085 0.4186041 0.6918529 0.4181895 0.6921449 0.4186835 0.6917734 0.4182361 0.6918529 0.4181895 0.6915736 0.4177038 0.6916667 0.417687 0.6916667 0.417687 0.6915689 0.4171259 0.6916663 0.4171447 0.691869 0.4166387 0.6915689 0.4171259 0.6917891 0.4165883 0.6925036 0.4165977 0.6922838 0.4169062 0.6922294 0.4168704 0.6925036 0.4165977 0.692879 0.4165162 0.6925423 0.4166561 0.6928674 0.4164483 0.6932447 0.4165264 0.692879 0.4165162 0.6932625 0.4164589 0.693575 0.416688 0.6932447 0.4165264 0.6938788 0.4169384 0.693575 0.416688 0.6936162 0.4166351 0.6938788 0.4169384 0.6939661 0.4173243 0.693817 0.4169762 0.6940361 0.4176997 0.6939661 0.4173243 0.6940311 0.417311 0.6938816 0.4180634 0.6939684 0.4176869 0.6940361 0.4176997 0.6938816 0.4180634 0.6935543 0.4182746 0.6938233 0.4180225 0.6935896 0.418335 0.6932092 0.4183949 0.6935543 0.4182746 0.6928298 0.4184304 0.6932092 0.4183949 0.6932175 0.41846 0.6924759 0.418263 0.6928465 0.4183647 0.6928298 0.4184304 0.6922113 0.4179778 0.6925155 0.4182075 0.6924759 0.418263 0.6920812 0.4176141 0.6922689 0.4179416 0.6922113 0.4179778 0.6920895 0.4172266 0.6921475 0.4176024 0.6920812 0.4176141 0.6920895 0.4172266 0.6922838 0.4169062 0.6921575 0.4172399 0.4574037 0.4268206 0.4590188 0.4304553 0.4574573 0.4291107 0.1702251 0.8016131 0.1775069 0.7996671 0.1777372 0.8016102 0.1702638 0.8058145 0.1778092 0.8025443 0.1780464 0.8058091 0.2285929 0.8005028 0.2273837 0.7980552 0.2293519 0.7999828 0.1784809 0.6203089 0.1715153 0.6183912 0.1787256 0.6184397 0.1788315 0.617682 0.1715393 0.6153135 0.179177 0.6153665 0.3316866 0.8937273 0.3341745 0.9146752 0.3316901 0.9155128 0.2002094 0.8055645 0.2212023 0.8018087 0.2229214 0.8050267 0.2229214 0.8050267 0.22921 0.8014835 0.2312294 0.8046986 0.3316853 0.8859596 0.3341745 0.8922633 0.3316866 0.8937273 0.3334671 0.9513773 0.3316625 0.9494496 0.334172 0.9498472 0.1716384 0.6203358 0.1691141 0.6431648 0.1695609 0.6201323 0.1655172 0.8025699 0.1641409 0.8022291 0.1655279 0.8016641 0.1655327 0.7998191 0.1641409 0.8022291 0.1629127 0.8002839 0.1655172 0.8025699 0.164131 0.8051918 0.1643322 0.8027915 0.168143 0.7765513 0.1703904 0.7995939 0.1684359 0.7998199 0.1777372 0.8016102 0.1980739 0.7994162 0.1989713 0.8013761 0.9941383 0.9360202 0.9916884 0.9588264 0.9916845 0.9347157 0.2299761 0.8009595 0.2308912 0.7785576 0.2320196 0.8041604 0.168143 0.7765513 0.1656026 0.7998352 0.1652331 0.7765546 0.1655327 0.7998191 0.1660706 0.7761288 0.1684716 0.7764866 0.3398752 0.8901609 0.3373612 0.8888605 0.339876 0.8885783 0.2280201 0.619565 0.2212444 0.6185221 0.2288501 0.6188073 0.2315341 0.6164848 0.2293187 0.619234 0.2288501 0.6188073 0.2278614 0.6442053 0.2265136 0.6218217 0.228484 0.6199893 0.339878 0.950899 0.3370336 0.9496596 0.3373637 0.9491291 0.2293519 0.7999828 0.2289586 0.7761967 0.2299761 0.8009595 0.2273837 0.7980552 0.2281906 0.775286 0.2293519 0.7999828 0.2285929 0.8005028 0.2299761 0.8009595 0.22921 0.8014835 0.4572659 0.4272808 0.4574037 0.4268206 0.4574573 0.4291107 0.6851454 0.4241074 0.6835072 0.4284163 0.6835354 0.4254773 0.9941383 0.7905759 0.9916573 0.7678874 0.9941383 0.7660646 0.1702321 0.6176283 0.1715393 0.6153135 0.1715314 0.6176342 0.3392665 0.8834372 0.3373855 0.884785 0.3372306 0.8837559 0.1684359 0.7998199 0.1702251 0.8016131 0.1688542 0.8016318 0.1886855 0.6170392 0.1887256 0.6147965 0.1895691 0.6154487 0.3341737 0.9463343 0.3316625 0.9494496 0.3316571 0.9458809 0.1690961 0.8025426 0.1702251 0.8016131 0.1702623 0.8025398 0.1695609 0.6201323 0.1660188 0.6183373 0.1701326 0.6183777 0.339876 0.8885783 0.3373855 0.884785 0.339878 0.8845508 0.1695609 0.6201323 0.1654367 0.6431133 0.1656653 0.6200855 0.1701326 0.6183777 0.1716384 0.6203358 0.1695609 0.6201323 0.1661229 0.6175929 0.1701911 0.6153036 0.1702321 0.6176283 0.1700744 0.77653 0.1685094 0.709703 0.1704916 0.7097051 0.1655279 0.8016641 0.1684359 0.7998199 0.1688542 0.8016318 0.1691141 0.6431648 0.165229 0.7096734 0.1654367 0.6431133 0.3341744 0.9448857 0.3316935 0.9371706 0.3341745 0.9369558 0.1702623 0.8025398 0.169182 0.8058074 0.1690961 0.8025426 0.1702321 0.6176283 0.1715153 0.6183912 0.1701326 0.6183777 0.164131 0.8051918 0.1641409 0.8022291 0.1643322 0.8027915 0.2206856 0.8008373 0.2266576 0.7985553 0.2285929 0.8005028 0.1661229 0.6175929 0.1650409 0.6179499 0.1651702 0.6174851 0.1690961 0.8025426 0.1655579 0.8057755 0.1655172 0.8025699 0.1886855 0.6170392 0.1837908 0.6400598 0.1869357 0.6160548 0.3398754 0.8980358 0.3373622 0.9196214 0.337361 0.8978086 0.1994552 0.6187565 0.1788315 0.617682 0.199854 0.6179984 0.199854 0.6179984 0.2205389 0.6192783 0.1994552 0.6187565 0.2263634 0.7739709 0.2272288 0.7098938 0.2281906 0.775286 0.2189115 0.6211525 0.1994552 0.6187565 0.2205389 0.6192783 0.2312148 0.6420259 0.2293187 0.619234 0.2320196 0.616922 0.228484 0.6199893 0.2288501 0.6188073 0.2293187 0.619234 0.2260738 0.6214126 0.2205389 0.6192783 0.2280201 0.619565 0.228484 0.6199893 0.2287732 0.6435956 0.2278614 0.6442053 0.3341744 0.9448857 0.3316571 0.9458809 0.3316895 0.9448158 0.3341745 0.8842722 0.3313154 0.8851471 0.3337981 0.8834372 0.2289586 0.7761967 0.2304176 0.7104395 0.2308912 0.7785576 0.2212444 0.6185221 0.2011572 0.6156846 0.2235597 0.6162095 0.3398765 0.9205043 0.3373632 0.9415132 0.3373622 0.9196214 0.1985359 0.6206293 0.1787256 0.6184397 0.1994552 0.6187565 0.1685094 0.709703 0.1652331 0.7765546 0.165229 0.7096734 0.1660706 0.7761288 0.17707 0.7084159 0.1684716 0.7764866 0.2278614 0.6442053 0.2283735 0.7100645 0.2272288 0.7098938 0.2283735 0.7100645 0.2281906 0.775286 0.2272288 0.7098938 0.2272288 0.7098938 0.2259961 0.645453 0.2278614 0.6442053 0.9916845 0.9347157 0.9941381 0.8632894 0.9941383 0.9360202 0.1715314 0.6176342 0.1787256 0.6184397 0.1715153 0.6183912 0.9941381 0.8632894 0.9916613 0.7919476 0.9941383 0.7905759 0.2304176 0.7104395 0.2287732 0.6435956 0.2312148 0.6420259 0.2265136 0.6218217 0.2280201 0.619565 0.228484 0.6199893 0.1780464 0.8058091 0.1992583 0.8023281 0.2002094 0.8055645 0.3316901 0.9155128 0.3341745 0.9369558 0.3316935 0.9371706 0.2285929 0.8005028 0.2212023 0.8018087 0.2206856 0.8008373 0.199854 0.6179984 0.179177 0.6153665 0.2011572 0.6156846 0.2288501 0.6188073 0.2235597 0.6162095 0.2315341 0.6164848 0.3398776 0.9430542 0.3373637 0.9491291 0.3373632 0.9415132 0.2206856 0.8008373 0.1992583 0.8023281 0.1989713 0.8013761 0.1989713 0.8013761 0.1778092 0.8025443 0.1777372 0.8016102 0.1989713 0.8013761 0.2190818 0.7988694 0.2206856 0.8008373 0.1704916 0.7097051 0.1691141 0.6431648 0.1711899 0.6431813 0.1749404 0.7080945 0.185683 0.6403495 0.17707 0.7084159 0.22921 0.8014835 0.2320196 0.8041604 0.2312294 0.8046986 0.3398752 0.8901609 0.337361 0.8978086 0.3373607 0.8902016 0.1702623 0.8025398 0.1777372 0.8016102 0.1778092 0.8025443 0.1655172 0.8025699 0.1688542 0.8016318 0.1690961 0.8025426 0.1701326 0.6183777 0.1661229 0.6175929 0.1702321 0.6176283 0.1661229 0.6175929 0.1651194 0.6156406 0.1660996 0.6152759 0.3920865 0.8288696 0.573232 0.8833134 0.3920864 0.8831776 0.6328798 0.6631706 0.6307811 0.6619356 0.6330531 0.661998 0.5748848 0.8954391 0.5771493 0.8630815 0.5771577 0.8954391 0.6307385 0.818018 0.6330194 0.8090205 0.6330106 0.8180804 0.6307142 0.8461305 0.6329944 0.8367828 0.6329863 0.846193 0.630687 0.767113 0.63268 0.7242157 0.6329591 0.7671754 0.5770703 0.9279758 0.5748713 0.9197472 0.5771443 0.9197472 0.5771443 0.9197472 0.5748848 0.8954391 0.5771577 0.8954391 0.6330526 0.7829751 0.630776 0.7863816 0.6307806 0.7829127 0.6307518 0.8531899 0.6329863 0.846193 0.6329783 0.8556038 0.6307695 0.7909259 0.6330481 0.786444 0.6330415 0.7909883 0.6307806 0.7829127 0.6330531 0.7816572 0.6330526 0.7829751 0.6326164 0.664954 0.6306079 0.6631081 0.6328798 0.6631706 0.6307223 0.8367204 0.6330023 0.8273734 0.6329944 0.8367828 0.6304079 0.7241533 0.6324784 0.6808014 0.63268 0.7242157 0.6307558 0.8011143 0.633035 0.7955326 0.6330279 0.8011768 0.6307811 0.7815948 0.6329591 0.7671754 0.6330531 0.7816572 0.6307629 0.7954702 0.6330415 0.7909883 0.633035 0.7955326 0.6307303 0.8273109 0.6330106 0.8180804 0.6330023 0.8273734 0.6302063 0.6807389 0.6326164 0.664954 0.6324784 0.6808014 0.6307473 0.8089581 0.6330279 0.8011768 0.6330194 0.8090205 0.6917151 0.4165427 0.6895191 0.4162177 0.6896427 0.4151983 0.6914076 0.4138845 0.693411 0.41583 0.6927497 0.4158098 0.6916933 0.4123705 0.6914525 0.4136404 0.6893964 0.4136732 0.693411 0.41583 0.6914076 0.4138845 0.6929854 0.4145203 0.6940191 0.416105 0.6929854 0.4145203 0.6941378 0.4157022 0.6944354 0.4166051 0.6941378 0.4157022 0.6946672 0.4171978 0.694639 0.4178203 0.6946484 0.41721 0.6946672 0.4171978 0.6944187 0.4184302 0.694639 0.4178203 0.6946549 0.4187538 0.6939275 0.418881 0.6944187 0.4184302 0.6939399 0.4202417 0.6926881 0.421327 0.6916704 0.4210581 0.6933054 0.419104 0.6926523 0.4190559 0.6933054 0.419104 0.6916704 0.4210581 0.6920895 0.4187505 0.6926523 0.4190559 0.6905705 0.4206021 0.6917028 0.4182773 0.6920895 0.4187505 0.6901004 0.4197769 0.6914914 0.4177196 0.6917028 0.4182773 0.6897363 0.4189308 0.6914914 0.4177196 0.6895135 0.4180394 0.6894461 0.4171306 0.6914856 0.4171108 0.6894461 0.4171306 0.6895191 0.4162177 0.6922508 0.4162291 0.6925036 0.4165977 0.6922294 0.4168704 0.6868232 0.4127999 0.6873701 0.4139468 0.685895 0.4151244 0.6927853 0.4160029 0.6933661 0.4160184 0.6932625 0.4164589 0.6938954 0.4162651 0.6936162 0.4166351 0.6932625 0.4164589 0.694268 0.4167021 0.6938788 0.4169384 0.6936162 0.4166351 0.694268 0.4167021 0.6944665 0.417239 0.6940311 0.417311 0.6944665 0.417239 0.6944546 0.4177865 0.6940361 0.4176997 0.6942521 0.4183195 0.6938816 0.4180634 0.6940361 0.4176997 0.6942521 0.4183195 0.6938263 0.4187161 0.6935896 0.418335 0.6952442 0.4212068 0.6934911 0.4228125 0.6927839 0.4215601 0.6927058 0.4188722 0.6922085 0.4186041 0.6924759 0.418263 0.6922085 0.4186041 0.6918529 0.4181895 0.6922113 0.4179778 0.6916667 0.417687 0.6920812 0.4176141 0.6922113 0.4179778 0.6916663 0.4171447 0.6920895 0.4172266 0.6920812 0.4176141 0.6916663 0.4171447 0.691869 0.4166387 0.6922294 0.4168704 0.6884717 0.4170615 0.6865895 0.417013 0.6872729 0.4155948 0.6952442 0.4212068 0.694138 0.4203931 0.6948873 0.41881 0.6892823 0.412257 0.6893964 0.4136732 0.6873701 0.4139468 0.693814 0.4132613 0.6931231 0.414313 0.6914525 0.4136404 0.6894888 0.4205099 0.6900047 0.4212921 0.689544 0.4216606 0.6953809 0.4148727 0.6943409 0.4155728 0.6931231 0.414313 0.6889352 0.4194883 0.6894888 0.4205099 0.6882524 0.4212298 0.6961696 0.4169163 0.6948969 0.417158 0.6943409 0.4155728 0.6885578 0.4182958 0.6889352 0.4194883 0.6871443 0.4201464 0.6886194 0.4158776 0.6872729 0.4155948 0.6883536 0.4147273 0.6961662 0.4190979 0.6948873 0.41881 0.6948969 0.417158 0.6885578 0.4182958 0.6865393 0.4186416 0.6865895 0.417013 0.6911337 0.4237501 0.6886165 0.4239369 0.6888132 0.4225695 0.6886165 0.4239369 0.6863221 0.4230778 0.6870767 0.4219463 0.6863221 0.4230778 0.6845765 0.4213338 0.6857138 0.4206117 0.6845765 0.4213338 0.6836773 0.4190161 0.6849925 0.4188107 0.6836773 0.4190161 0.6837864 0.4165294 0.6850528 0.416865 0.6922508 0.4162291 0.6927853 0.4160029 0.6928674 0.4164483 0.6895316 0.4139532 0.6927497 0.4158098 0.6921369 0.4160684 0.6932789 0.4189092 0.6932175 0.41846 0.6935896 0.418335 0.6927058 0.4188722 0.6928298 0.4184304 0.6932175 0.41846 0.6934911 0.4228125 0.6911337 0.4237501 0.6907469 0.4222494 0.6837864 0.4165294 0.684897 0.4143186 0.685895 0.4151244 0.6871119 0.4154686 0.6860871 0.4152756 0.6874657 0.4141669 0.6895277 0.421824 0.6902016 0.4216521 0.6906081 0.422008 0.6881451 0.4214013 0.6895277 0.421824 0.6888372 0.4223372 0.6869631 0.4202669 0.6881451 0.4214013 0.6872069 0.4217445 0.6863201 0.4186804 0.6869631 0.4202669 0.6859197 0.4204763 0.6863201 0.4186804 0.6852378 0.4187681 0.6852939 0.4169241 0.6863762 0.4169611 0.6852939 0.4169241 0.6860871 0.4152756 0.6901383 0.4212343 0.6904469 0.420693 0.6906081 0.422008 0.688282 0.4145782 0.6874657 0.4141669 0.6893425 0.4139505 0.6896415 0.4204205 0.6899736 0.4198401 0.6904469 0.420693 0.6891165 0.4194123 0.6896014 0.4189769 0.6899736 0.4198401 0.6887621 0.4182567 0.68937 0.4180625 0.6896014 0.4189769 0.6886625 0.4170659 0.6893091 0.4171301 0.68937 0.4180625 0.6886625 0.4170659 0.6888062 0.4159082 0.6893735 0.4162037 0.6888062 0.4159082 0.688992 0.4148903 0.6894829 0.4151979 0.688992 0.4148903 0.6889725 0.4144988 0.6893425 0.4139505 0.6872729 0.4155948 0.6871715 0.4155152 0.6883074 0.4146315 0.6900888 0.4215728 0.6901608 0.4216209 0.6895335 0.421763 0.6882524 0.4212298 0.689544 0.4216606 0.6895335 0.421763 0.6871443 0.4201464 0.6882524 0.4212298 0.6881851 0.421338 0.6865393 0.4186416 0.6871443 0.4201464 0.6870304 0.4202224 0.6865393 0.4186416 0.686401 0.4186662 0.6864554 0.4169803 0.6865895 0.417013 0.6864554 0.4169803 0.6871715 0.4155152 0.6900888 0.4215728 0.6900047 0.4212921 0.6900891 0.421254 0.6888782 0.4146192 0.6883536 0.4147273 0.6883074 0.4146315 0.6900047 0.4212921 0.6894888 0.4205099 0.6895855 0.4204527 0.6894888 0.4205099 0.6889352 0.4194883 0.6890496 0.4194399 0.6889352 0.4194883 0.6885578 0.4182958 0.6886868 0.4182711 0.6884717 0.4170615 0.6885926 0.4170644 0.6886868 0.4182711 0.6884717 0.4170615 0.6886194 0.4158776 0.6887373 0.4158977 0.6888412 0.4148707 0.6889322 0.4148854 0.6887373 0.4158977 0.6888782 0.4146192 0.6889437 0.4145449 0.6889322 0.4148854 0.6860871 0.4152756 0.6860199 0.4152234 0.6874328 0.4140973 0.6888372 0.4223372 0.6906081 0.422008 0.6907025 0.422085 0.6872069 0.4217445 0.6888372 0.4223372 0.6888266 0.4224116 0.6859197 0.4204763 0.6872069 0.4217445 0.6871612 0.4218143 0.6852378 0.4187681 0.6859197 0.4204763 0.6858479 0.4205233 0.6852378 0.4187681 0.6851522 0.4187831 0.6852097 0.4169037 0.6852939 0.4169241 0.6852097 0.4169037 0.6860199 0.4152234 0.6904469 0.420693 0.6905096 0.4206711 0.6907025 0.422085 0.6874657 0.4141669 0.6874328 0.4140973 0.6894084 0.4138447 0.6904469 0.420693 0.6899736 0.4198401 0.69003 0.419812 0.6896014 0.4189769 0.6896614 0.4189562 0.69003 0.419812 0.68937 0.4180625 0.6894342 0.4180521 0.6896614 0.4189562 0.68937 0.4180625 0.6893091 0.4171301 0.6893699 0.4171303 0.6893735 0.4162037 0.6894382 0.4162099 0.6893699 0.4171303 0.6893735 0.4162037 0.6894829 0.4151979 0.6895531 0.4151973 0.6893425 0.4139505 0.6894084 0.4138447 0.6895531 0.4151973 0.688282 0.4145782 0.6883074 0.4146315 0.6871715 0.4155152 0.6902016 0.4216521 0.6895277 0.421824 0.6895335 0.421763 0.6895277 0.421824 0.6881451 0.4214013 0.6881851 0.421338 0.6881451 0.4214013 0.6869631 0.4202669 0.6870304 0.4202224 0.6869631 0.4202669 0.6863201 0.4186804 0.686401 0.4186662 0.6863762 0.4169611 0.6864554 0.4169803 0.686401 0.4186662 0.6871119 0.4154686 0.6871715 0.4155152 0.6864554 0.4169803 0.6902016 0.4216521 0.6901608 0.4216209 0.6900891 0.421254 0.6889725 0.4144988 0.6889437 0.4145449 0.6883074 0.4146315 0.6896415 0.4204205 0.6901383 0.4212343 0.6900891 0.421254 0.6896415 0.4204205 0.6895855 0.4204527 0.6890496 0.4194399 0.6891165 0.4194123 0.6890496 0.4194399 0.6886868 0.4182711 0.6886625 0.4170659 0.6887621 0.4182567 0.6886868 0.4182711 0.6886625 0.4170659 0.6885926 0.4170644 0.6887373 0.4158977 0.688992 0.4148903 0.6888062 0.4159082 0.6887373 0.4158977 0.688992 0.4148903 0.6889322 0.4148854 0.6889437 0.4145449 0.6873701 0.4139468 0.6874328 0.4140973 0.6860199 0.4152234 0.684897 0.4143186 0.6847645 0.4142106 0.6867495 0.412644 0.6868232 0.4127999 0.6867495 0.412644 0.6892675 0.4120893 0.6892823 0.412257 0.6892675 0.4120893 0.6917282 0.4122126 0.6931231 0.414313 0.693041 0.4144371 0.6914253 0.413778 0.6916933 0.4123705 0.6917282 0.4122126 0.693902 0.4131313 0.6943409 0.4155728 0.6942197 0.4156501 0.693041 0.4144371 0.693814 0.4132613 0.693902 0.4131313 0.6955096 0.4147894 0.6948969 0.417158 0.6947588 0.417182 0.6942197 0.4156501 0.6953809 0.4148727 0.6955096 0.4147894 0.6963177 0.4168884 0.6948873 0.41881 0.6947484 0.4187771 0.6947588 0.417182 0.6961696 0.4169163 0.6963177 0.4168884 0.6963177 0.4191303 0.694138 0.4203931 0.6940191 0.4203023 0.6947484 0.4187771 0.6961662 0.4190979 0.6963177 0.4191303 0.695376 0.4213014 0.694138 0.4203931 0.6927839 0.4215601 0.692713 0.4214365 0.6934911 0.4228125 0.6952442 0.4212068 0.695376 0.4213014 0.6927839 0.4215601 0.6907469 0.4222494 0.6907025 0.422085 0.6911337 0.4237501 0.6934911 0.4228125 0.6935797 0.4229559 0.6907469 0.4222494 0.6888132 0.4225695 0.6888266 0.4224116 0.6886165 0.4239369 0.6911337 0.4237501 0.6911725 0.4239191 0.6888132 0.4225695 0.6870767 0.4219463 0.6871612 0.4218143 0.6863221 0.4230778 0.6886165 0.4239369 0.6885921 0.4241074 0.6870767 0.4219463 0.6857138 0.4206117 0.6858479 0.4205233 0.6845765 0.4213338 0.6863221 0.4230778 0.6862293 0.4232209 0.6857138 0.4206117 0.6849925 0.4188107 0.6851522 0.4187831 0.6836773 0.4190161 0.6845765 0.4213338 0.6844325 0.4214271 0.6849925 0.4188107 0.6850528 0.416865 0.6852097 0.4169037 0.6837864 0.4165294 0.6836773 0.4190161 0.6835072 0.4190438 0.6850528 0.416865 0.685895 0.4151244 0.6860199 0.4152234 0.684897 0.4143186 0.6837864 0.4165294 0.6836199 0.4164857 0.6893964 0.4136732 0.6894084 0.4138447 0.6874328 0.4140973 0.6914525 0.4136404 0.6914253 0.413778 0.6894084 0.4138447 0.6914076 0.4138845 0.6914253 0.413778 0.693041 0.4144371 0.6929854 0.4145203 0.693041 0.4144371 0.6942197 0.4156501 0.6941378 0.4157022 0.6942197 0.4156501 0.6947588 0.417182 0.6946549 0.4187538 0.6946672 0.4171978 0.6947588 0.417182 0.6939399 0.4202417 0.6946549 0.4187538 0.6947484 0.4187771 0.6926881 0.421327 0.6939399 0.4202417 0.6940191 0.4203023 0.6917151 0.4165427 0.6921369 0.4160684 0.6921907 0.4161435 0.6927497 0.4158098 0.6927663 0.415901 0.6921907 0.4161435 0.693411 0.41583 0.6933891 0.4159204 0.6927663 0.415901 0.6940191 0.416105 0.6939613 0.4161788 0.6933891 0.4159204 0.6944354 0.4166051 0.6943539 0.4166518 0.6939613 0.4161788 0.6946484 0.41721 0.6945642 0.4172234 0.6943539 0.4166518 0.6946484 0.41721 0.694639 0.4178203 0.6945477 0.4178043 0.694639 0.4178203 0.6944187 0.4184302 0.694341 0.4183793 0.6944187 0.4184302 0.6939275 0.418881 0.6938785 0.4188019 0.6939275 0.418881 0.6933054 0.419104 0.693293 0.4190108 0.6926523 0.4190559 0.6926783 0.4189693 0.693293 0.4190108 0.6920895 0.4187505 0.6921449 0.4186835 0.6926783 0.4189693 0.6917028 0.4182773 0.6917734 0.4182361 0.6921449 0.4186835 0.6917028 0.4182773 0.6914914 0.4177196 0.6915736 0.4177038 0.6914914 0.4177196 0.6914856 0.4171108 0.6915689 0.4171259 0.6914856 0.4171108 0.6917151 0.4165427 0.6917891 0.4165883 0.6905705 0.4206021 0.6905096 0.4206711 0.69003 0.419812 0.6897363 0.4189308 0.6901004 0.4197769 0.69003 0.419812 0.6895135 0.4180394 0.6897363 0.4189308 0.6896614 0.4189562 0.6895135 0.4180394 0.6894342 0.4180521 0.6893699 0.4171303 0.6895191 0.4162177 0.6894461 0.4171306 0.6893699 0.4171303 0.6895191 0.4162177 0.6894382 0.4162099 0.6895531 0.4151973 0.6895316 0.4139532 0.6896427 0.4151983 0.6895531 0.4151973 0.6895316 0.4139532 0.6894084 0.4138447 0.6914253 0.413778 0.6905705 0.4206021 0.6916704 0.4210581 0.6916401 0.4211486 0.6926881 0.421327 0.692713 0.4214365 0.6916401 0.4211486 0.691869 0.4166387 0.6917891 0.4165883 0.6921907 0.4161435 0.6927853 0.4160029 0.6922508 0.4162291 0.6921907 0.4161435 0.6933661 0.4160184 0.6927853 0.4160029 0.6927663 0.415901 0.6933661 0.4160184 0.6933891 0.4159204 0.6939613 0.4161788 0.694268 0.4167021 0.6938954 0.4162651 0.6939613 0.4161788 0.6944665 0.417239 0.694268 0.4167021 0.6943539 0.4166518 0.6944546 0.4177865 0.6944665 0.417239 0.6945642 0.4172234 0.6944546 0.4177865 0.6945477 0.4178043 0.694341 0.4183793 0.6938263 0.4187161 0.6942521 0.4183195 0.694341 0.4183793 0.6938263 0.4187161 0.6938785 0.4188019 0.693293 0.4190108 0.6932789 0.4189092 0.693293 0.4190108 0.6926783 0.4189693 0.6927058 0.4188722 0.6926783 0.4189693 0.6921449 0.4186835 0.6918529 0.4181895 0.6922085 0.4186041 0.6921449 0.4186835 0.6918529 0.4181895 0.6917734 0.4182361 0.6915736 0.4177038 0.6916667 0.417687 0.6915736 0.4177038 0.6915689 0.4171259 0.691869 0.4166387 0.6916663 0.4171447 0.6915689 0.4171259 0.6925036 0.4165977 0.6925423 0.4166561 0.6922838 0.4169062 0.6925036 0.4165977 0.6928674 0.4164483 0.692879 0.4165162 0.6928674 0.4164483 0.6932625 0.4164589 0.6932447 0.4165264 0.6932625 0.4164589 0.6936162 0.4166351 0.693575 0.416688 0.6938788 0.4169384 0.693817 0.4169762 0.693575 0.416688 0.6938788 0.4169384 0.6940311 0.417311 0.6939661 0.4173243 0.6940361 0.4176997 0.6939684 0.4176869 0.6939661 0.4173243 0.6938816 0.4180634 0.6938233 0.4180225 0.6939684 0.4176869 0.6938816 0.4180634 0.6935896 0.418335 0.6935543 0.4182746 0.6935896 0.418335 0.6932175 0.41846 0.6932092 0.4183949 0.6928298 0.4184304 0.6928465 0.4183647 0.6932092 0.4183949 0.6924759 0.418263 0.6925155 0.4182075 0.6928465 0.4183647 0.6922113 0.4179778 0.6922689 0.4179416 0.6925155 0.4182075 0.6920812 0.4176141 0.6921475 0.4176024 0.6922689 0.4179416 0.6920895 0.4172266 0.6921575 0.4172399 0.6921475 0.4176024 0.6920895 0.4172266 0.6922294 0.4168704 0.6922838 0.4169062 0.4574037 0.4268206 0.4590188 0.4253979 0.4590188 0.4304553 0.1702251 0.8016131 0.1703904 0.7995939 0.1775069 0.7996671 0.1702638 0.8058145 0.1702623 0.8025398 0.1778092 0.8025443 0.2285929 0.8005028 0.2266576 0.7985553 0.2273837 0.7980552 0.1784809 0.6203089 0.1716384 0.6203358 0.1715153 0.6183912 0.1788315 0.617682 0.1715314 0.6176342 0.1715393 0.6153135 0.3316866 0.8937273 0.3341745 0.8922633 0.3341745 0.9146752 0.2002094 0.8055645 0.1992583 0.8023281 0.2212023 0.8018087 0.2229214 0.8050267 0.2212023 0.8018087 0.22921 0.8014835 0.3316853 0.8859596 0.3341745 0.8842722 0.3341745 0.8922633 0.3334671 0.9513773 0.3313992 0.9509384 0.3316625 0.9494496 0.1716384 0.6203358 0.1711899 0.6431813 0.1691141 0.6431648 0.1655172 0.8025699 0.1643322 0.8027915 0.1641409 0.8022291 0.1655327 0.7998191 0.1655279 0.8016641 0.1641409 0.8022291 0.1655172 0.8025699 0.1655579 0.8057755 0.164131 0.8051918 0.168143 0.7765513 0.1700744 0.77653 0.1703904 0.7995939 0.1777372 0.8016102 0.1775069 0.7996671 0.1980739 0.7994162 0.9941383 0.9360202 0.9941383 0.9605829 0.9916884 0.9588264 0.2299761 0.8009595 0.2289586 0.7761967 0.2308912 0.7785576 0.168143 0.7765513 0.1684359 0.7998199 0.1656026 0.7998352 0.1655327 0.7998191 0.1629127 0.8002839 0.1660706 0.7761288 0.3398752 0.8901609 0.3373607 0.8902016 0.3373612 0.8888605 0.2280201 0.619565 0.2205389 0.6192783 0.2212444 0.6185221 0.2315341 0.6164848 0.2320196 0.616922 0.2293187 0.619234 0.2278614 0.6442053 0.2259961 0.645453 0.2265136 0.6218217 0.339878 0.950899 0.339542 0.9514443 0.3370336 0.9496596 0.2293519 0.7999828 0.2281906 0.775286 0.2289586 0.7761967 0.2273837 0.7980552 0.2263634 0.7739709 0.2281906 0.775286 0.2285929 0.8005028 0.2293519 0.7999828 0.2299761 0.8009595 0.6851454 0.4241074 0.6851454 0.4299775 0.6835072 0.4284163 0.9941383 0.7905759 0.9916613 0.7919476 0.9916573 0.7678874 0.1702321 0.6176283 0.1701911 0.6153036 0.1715393 0.6153135 0.3392665 0.8834372 0.339878 0.8845508 0.3373855 0.884785 0.1684359 0.7998199 0.1703904 0.7995939 0.1702251 0.8016131 0.1886855 0.6170392 0.1869357 0.6160548 0.1887256 0.6147965 0.3341737 0.9463343 0.334172 0.9498472 0.3316625 0.9494496 0.1690961 0.8025426 0.1688542 0.8016318 0.1702251 0.8016131 0.1695609 0.6201323 0.1656653 0.6200855 0.1660188 0.6183373 0.339876 0.8885783 0.3373612 0.8888605 0.3373855 0.884785 0.1695609 0.6201323 0.1691141 0.6431648 0.1654367 0.6431133 0.1701326 0.6183777 0.1715153 0.6183912 0.1716384 0.6203358 0.1661229 0.6175929 0.1660996 0.6152759 0.1701911 0.6153036 0.1700744 0.77653 0.168143 0.7765513 0.1685094 0.709703 0.1655279 0.8016641 0.1656026 0.7998352 0.1684359 0.7998199 0.1691141 0.6431648 0.1685094 0.709703 0.165229 0.7096734 0.3341744 0.9448857 0.3316895 0.9448158 0.3316935 0.9371706 0.1702623 0.8025398 0.1702638 0.8058145 0.169182 0.8058074 0.1702321 0.6176283 0.1715314 0.6176342 0.1715153 0.6183912 0.2206856 0.8008373 0.2190818 0.7988694 0.2266576 0.7985553 0.1661229 0.6175929 0.1660188 0.6183373 0.1650409 0.6179499 0.1690961 0.8025426 0.169182 0.8058074 0.1655579 0.8057755 0.1886855 0.6170392 0.185683 0.6403495 0.1837908 0.6400598 0.3398754 0.8980358 0.3398765 0.9205043 0.3373622 0.9196214 0.1994552 0.6187565 0.1787256 0.6184397 0.1788315 0.617682 0.199854 0.6179984 0.2212444 0.6185221 0.2205389 0.6192783 0.2263634 0.7739709 0.2254855 0.7098544 0.2272288 0.7098938 0.2189115 0.6211525 0.1985359 0.6206293 0.1994552 0.6187565 0.2312148 0.6420259 0.2287732 0.6435956 0.2293187 0.619234 0.228484 0.6199893 0.2280201 0.619565 0.2288501 0.6188073 0.2260738 0.6214126 0.2189115 0.6211525 0.2205389 0.6192783 0.228484 0.6199893 0.2293187 0.619234 0.2287732 0.6435956 0.3341744 0.9448857 0.3341737 0.9463343 0.3316571 0.9458809 0.3341745 0.8842722 0.3316853 0.8859596 0.3313154 0.8851471 0.2289586 0.7761967 0.2283735 0.7100645 0.2304176 0.7104395 0.2212444 0.6185221 0.199854 0.6179984 0.2011572 0.6156846 0.3398765 0.9205043 0.3398776 0.9430542 0.3373632 0.9415132 0.1985359 0.6206293 0.1784809 0.6203089 0.1787256 0.6184397 0.1685094 0.709703 0.168143 0.7765513 0.1652331 0.7765546 0.1660706 0.7761288 0.1749404 0.7080945 0.17707 0.7084159 0.2278614 0.6442053 0.2287732 0.6435956 0.2283735 0.7100645 0.2283735 0.7100645 0.2289586 0.7761967 0.2281906 0.775286 0.2272288 0.7098938 0.2254855 0.7098544 0.2259961 0.645453 0.9916845 0.9347157 0.9916729 0.8633232 0.9941381 0.8632894 0.1715314 0.6176342 0.1788315 0.617682 0.1787256 0.6184397 0.9941381 0.8632894 0.9916729 0.8633232 0.9916613 0.7919476 0.2304176 0.7104395 0.2283735 0.7100645 0.2287732 0.6435956 0.2265136 0.6218217 0.2260738 0.6214126 0.2280201 0.619565 0.1780464 0.8058091 0.1778092 0.8025443 0.1992583 0.8023281 0.3316901 0.9155128 0.3341745 0.9146752 0.3341745 0.9369558 0.2285929 0.8005028 0.22921 0.8014835 0.2212023 0.8018087 0.199854 0.6179984 0.1788315 0.617682 0.179177 0.6153665 0.2288501 0.6188073 0.2212444 0.6185221 0.2235597 0.6162095 0.3398776 0.9430542 0.339878 0.950899 0.3373637 0.9491291 0.2206856 0.8008373 0.2212023 0.8018087 0.1992583 0.8023281 0.1989713 0.8013761 0.1992583 0.8023281 0.1778092 0.8025443 0.1989713 0.8013761 0.1980739 0.7994162 0.2190818 0.7988694 0.1704916 0.7097051 0.1685094 0.709703 0.1691141 0.6431648 0.1749404 0.7080945 0.1837908 0.6400598 0.185683 0.6403495 0.22921 0.8014835 0.2299761 0.8009595 0.2320196 0.8041604 0.3398752 0.8901609 0.3398754 0.8980358 0.337361 0.8978086 0.1702623 0.8025398 0.1702251 0.8016131 0.1777372 0.8016102 0.1655172 0.8025699 0.1655279 0.8016641 0.1688542 0.8016318 0.1701326 0.6183777 0.1660188 0.6183373 0.1661229 0.6175929 0.1661229 0.6175929 0.1651702 0.6174851 0.1651194 0.6156406 0.3920865 0.8288696 0.573232 0.82775 0.573232 0.8833134 0.6328798 0.6631706 0.6306079 0.6631081 0.6307811 0.6619356 0.5748848 0.8954391 0.5748765 0.8630815 0.5771493 0.8630815 0.6307385 0.818018 0.6307473 0.8089581 0.6330194 0.8090205 0.6307142 0.8461305 0.6307223 0.8367204 0.6329944 0.8367828 0.630687 0.767113 0.6304079 0.7241533 0.63268 0.7242157 0.5770703 0.9279758 0.5747974 0.9279758 0.5748713 0.9197472 0.5771443 0.9197472 0.5748713 0.9197472 0.5748848 0.8954391 0.6330526 0.7829751 0.6330481 0.786444 0.630776 0.7863816 0.6307518 0.8531899 0.6307142 0.8461305 0.6329863 0.846193 0.6307695 0.7909259 0.630776 0.7863816 0.6330481 0.786444 0.6307806 0.7829127 0.6307811 0.7815948 0.6330531 0.7816572 0.6326164 0.664954 0.6303443 0.6648915 0.6306079 0.6631081 0.6307223 0.8367204 0.6307303 0.8273109 0.6330023 0.8273734 0.6304079 0.7241533 0.6302063 0.6807389 0.6324784 0.6808014 0.6307558 0.8011143 0.6307629 0.7954702 0.633035 0.7955326 0.6307811 0.7815948 0.630687 0.767113 0.6329591 0.7671754 0.6307629 0.7954702 0.6307695 0.7909259 0.6330415 0.7909883 0.6307303 0.8273109 0.6307385 0.818018 0.6330106 0.8180804 0.6302063 0.6807389 0.6303443 0.6648915 0.6326164 0.664954 0.6307473 0.8089581 0.6307558 0.8011143 0.6330279 0.8011768</float_array>
          <technique_common>
            <accessor source="#Roof_low_001-mesh-map-0-array" count="1992" stride="2">
              <param name="S" type="float"/>
              <param name="T" type="float"/>
            </accessor>
          </technique_common>
        </source>
        <vertices id="Roof_low_001-mesh-vertices">
          <input semantic="POSITION" source="#Roof_low_001-mesh-positions"/>
        </vertices>
        <triangles material="Material_001-material" count="664">
          <input semantic="VERTEX" source="#Roof_low_001-mesh-vertices" offset="0"/>
          <input semantic="NORMAL" source="#Roof_low_001-mesh-normals" offset="1"/>
          <input semantic="TEXCOORD" source="#Roof_low_001-mesh-map-0" offset="2" set="0"/>
          <p>0 0 0 197 1 1 2 2 2 35 3 3 4 4 4 113 5 5 141 6 6 167 7 7 140 8 8 6 9 9 143 10 10 8 11 11 8 11 12 145 12 13 10 13 14 10 13 15 147 14 16 12 15 17 14 16 18 147 14 19 149 17 20 16 18 21 149 17 22 151 19 23 18 20 24 151 19 25 153 21 26 153 21 27 20 22 28 18 20 29 22 23 30 71 24 31 112 25 32 24 26 33 112 25 34 191 27 35 26 28 36 191 27 37 193 29 38 28 30 39 193 29 40 194 31 41 28 30 42 195 32 43 30 33 44 30 33 45 196 34 46 0 0 47 34 35 48 103 36 49 89 37 50 176 38 51 216 39 52 175 40 53 138 41 54 136 42 55 139 43 56 177 44 57 219 45 58 218 46 59 179 47 60 219 45 61 178 48 62 180 49 63 220 50 64 179 47 65 180 49 66 222 51 67 221 52 68 181 53 69 223 54 70 222 51 71 183 55 72 223 54 73 182 56 74 183 55 75 225 57 76 224 58 77 152 59 78 41 60 79 40 61 80 186 62 81 228 63 82 227 64 83 187 65 84 229 66 85 228 63 86 189 67 87 229 66 88 188 68 89 190 69 90 230 70 91 189 67 92 190 69 93 216 39 94 231 71 95 101 72 96 88 73 97 102 74 98 152 59 99 39 75 100 150 76 101 140 8 102 105 77 103 138 41 104 144 78 105 142 79 106 141 6 107 98 80 108 91 81 109 92 82 110 146 83 111 36 84 112 144 78 113 99 85 114 92 82 115 93 86 116 148 87 117 37 88 118 146 83 119 100 89 120 93 86 121 94 90 122 102 74 123 89 37 124 103 36 125 150 76 126 38 91 127 148 87 128 100 89 129 95 92 130 101 72 131 156 93 132 107 94 133 106 95 134 158 96 135 108 97 136 107 94 137 160 98 138 109 99 139 108 97 140 162 100 141 110 101 142 109 99 143 164 102 144 111 103 145 110 101 146 91 81 147 96 104 148 42 105 149 176 38 150 218 46 151 217 106 152 113 5 153 2 2 154 197 1 155 185 107 156 225 57 157 184 108 158 186 62 159 226 109 160 185 107 161 154 110 162 106 95 163 41 60 164 166 111 165 136 42 166 111 103 167 155 112 168 192 113 169 199 114 170 174 115 171 155 112 172 199 114 173 32 116 174 73 117 175 33 118 176 43 119 177 74 120 178 75 121 179 44 122 180 75 121 181 76 123 182 45 124 183 76 123 184 77 125 185 46 126 186 77 125 187 78 127 188 46 126 189 79 128 190 47 129 191 47 129 192 72 130 193 32 116 194 70 131 195 74 120 196 90 132 197 33 118 198 81 133 199 97 134 200 65 135 201 80 136 202 70 131 203 67 137 204 82 138 205 65 135 206 69 139 207 83 140 208 67 137 209 64 141 210 84 142 211 69 139 212 64 141 213 66 143 214 85 144 215 86 145 216 87 146 217 66 143 218 68 147 219 81 133 220 87 146 221 88 73 222 121 148 223 89 37 224 42 105 225 123 149 226 91 81 227 92 82 228 123 149 229 124 150 230 93 86 231 124 150 232 125 151 233 94 90 234 125 151 235 126 152 236 94 90 237 127 153 238 95 92 239 95 92 240 120 154 241 88 73 242 42 105 243 128 155 244 122 156 245 34 35 246 121 148 247 129 157 248 96 104 249 130 158 250 128 155 251 98 80 252 131 159 253 130 158 254 99 85 255 132 160 256 131 159 257 101 72 258 132 160 259 100 89 260 101 72 261 134 161 262 133 162 263 103 36 264 134 161 265 102 74 266 34 35 267 135 163 268 103 36 269 72 130 270 137 164 271 73 117 272 75 121 273 155 112 274 157 165 275 76 123 276 157 165 277 159 166 278 77 125 279 159 166 280 161 167 281 78 127 282 161 167 283 163 168 284 78 127 285 165 169 286 79 128 287 79 128 288 104 170 289 72 130 290 80 136 291 155 112 292 74 120 293 73 117 294 198 171 295 81 133 296 80 136 297 114 172 298 192 113 299 83 140 300 114 172 301 82 138 302 84 142 303 115 173 304 83 140 305 84 142 306 117 174 307 116 175 308 66 143 309 117 174 310 85 144 311 66 143 312 119 176 313 118 177 314 81 133 315 119 176 316 87 146 317 33 118 318 120 154 319 32 116 320 90 132 321 123 149 322 122 156 323 43 119 324 124 150 325 123 149 326 44 122 327 125 151 328 124 150 329 45 124 330 126 152 331 125 151 332 47 129 333 126 152 334 46 126 335 32 116 336 127 153 337 47 129 338 90 132 339 128 155 340 70 131 341 97 134 342 121 148 343 33 118 344 65 135 345 128 155 346 130 158 347 65 135 348 131 159 349 67 137 350 67 137 351 132 160 352 69 139 353 64 141 354 132 160 355 133 162 356 64 141 357 134 161 358 86 145 359 68 147 360 134 161 361 135 163 362 68 147 363 129 157 364 97 134 365 105 77 366 104 170 367 136 42 368 139 43 369 3 178 370 138 41 371 138 41 372 5 179 373 140 8 374 140 8 375 7 180 376 141 6 377 36 84 378 168 181 379 142 79 380 141 6 381 9 182 382 144 78 383 37 88 384 169 183 385 36 84 386 144 78 387 11 184 388 146 83 389 38 91 390 170 185 391 37 88 392 146 83 393 13 186 394 148 87 395 39 75 396 171 187 397 38 91 398 148 87 399 15 188 400 150 76 401 40 61 402 172 189 403 39 75 404 150 76 405 17 190 406 152 59 407 40 61 408 174 115 409 173 191 410 154 110 411 17 190 412 19 192 413 41 60 414 155 112 415 174 115 416 156 93 417 19 192 418 21 193 419 106 95 420 157 165 421 155 112 422 158 96 423 21 193 424 23 194 425 107 94 426 159 166 427 157 165 428 160 98 429 23 194 430 25 195 431 108 97 432 161 167 433 159 166 434 162 100 435 25 195 436 27 196 437 109 99 438 163 168 439 161 167 440 164 102 441 27 196 442 29 197 443 110 101 444 165 169 445 163 168 446 166 111 447 29 197 448 31 198 449 111 103 450 104 170 451 165 169 452 139 43 453 31 198 454 1 199 455 167 7 456 137 164 457 105 77 458 142 79 459 198 171 460 167 7 461 35 3 462 169 183 463 143 10 464 143 10 465 170 185 466 145 12 467 145 12 468 171 187 469 147 14 470 149 17 471 171 187 472 172 189 473 151 19 474 172 189 475 173 191 476 153 21 477 173 191 478 174 115 479 0 0 480 201 200 481 200 201 482 4 4 483 201 200 484 2 2 485 6 9 486 202 202 487 4 4 488 8 11 489 203 203 490 6 9 491 10 13 492 204 204 493 8 11 494 12 15 495 205 205 496 10 13 497 12 15 498 207 206 499 206 207 500 14 16 501 208 208 502 207 206 503 16 18 504 209 209 505 208 208 506 18 20 507 210 210 508 209 209 509 22 23 510 210 210 511 20 22 512 24 26 513 211 211 514 22 23 515 26 28 516 212 212 517 24 26 518 26 28 519 214 213 520 213 214 521 28 30 522 215 215 523 214 213 524 30 33 525 200 201 526 215 215 527 112 25 528 114 172 529 191 27 530 193 29 531 114 172 532 115 173 533 194 31 534 115 173 535 116 175 536 194 31 537 117 174 538 195 32 539 196 34 540 117 174 541 118 177 542 196 34 543 119 176 544 197 1 545 113 5 546 119 176 547 198 171 548 113 5 549 168 181 550 35 3 551 112 25 552 199 114 553 192 113 554 153 21 555 199 114 556 71 24 557 175 40 558 201 200 559 176 38 560 177 44 561 201 200 562 202 202 563 178 48 564 202 202 565 203 203 566 178 48 567 204 204 568 179 47 569 180 49 570 204 204 571 205 205 572 181 53 573 205 205 574 206 207 575 182 56 576 206 207 577 207 206 578 182 56 579 208 208 580 183 55 581 184 108 582 208 208 583 209 209 584 184 108 585 210 210 586 185 107 587 185 107 588 211 211 589 186 62 590 186 62 591 212 212 592 187 65 593 188 68 594 212 212 595 213 214 596 188 68 597 214 213 598 189 67 599 189 67 600 215 215 601 190 69 602 175 40 603 215 215 604 200 201 605 217 106 606 48 216 607 216 39 608 217 106 609 50 217 610 49 218 611 218 46 612 51 219 613 50 217 614 219 45 615 52 220 616 51 219 617 221 52 618 52 220 619 220 50 620 221 52 621 54 221 622 53 222 623 223 54 624 54 221 625 222 51 626 224 58 627 55 223 628 223 54 629 224 58 630 57 224 631 56 225 632 225 57 633 58 226 634 57 224 635 227 64 636 58 226 637 226 109 638 228 63 639 59 227 640 227 64 641 229 66 642 60 228 643 228 63 644 230 70 645 61 229 646 229 66 647 231 71 648 62 230 649 230 70 650 231 71 651 48 216 652 63 231 653 365 232 654 386 233 655 358 234 656 250 235 657 348 236 658 299 237 659 367 238 660 347 239 661 383 240 662 248 241 663 286 242 664 239 243 665 334 244 666 259 245 667 283 246 668 335 247 669 353 248 670 354 249 671 294 250 672 296 251 673 247 251 674 382 252 675 345 253 676 356 254 677 356 254 678 293 255 679 236 256 680 355 257 681 344 258 682 294 259 683 307 260 684 370 261 685 320 262 686 306 263 687 339 264 688 314 265 689 322 266 690 271 267 691 267 268 692 388 269 693 271 267 694 391 270 695 322 266 696 272 271 697 313 272 698 351 273 699 309 274 700 317 275 701 299 237 702 291 276 703 249 277 704 341 278 705 360 279 706 362 280 707 288 281 708 290 282 709 237 283 710 351 273 711 316 284 712 392 285 713 388 269 714 349 286 715 352 287 716 305 288 717 369 289 718 318 290 719 238 291 720 329 292 721 256 293 722 374 294 723 257 295 724 256 293 725 281 296 726 253 297 727 242 298 728 251 299 729 377 300 730 241 301 731 239 243 732 342 302 733 288 281 734 286 242 735 289 303 736 239 243 737 248 241 738 288 281 739 293 255 740 387 304 741 365 232 742 358 234 743 385 305 744 373 306 745 371 307 746 331 308 747 243 309 748 254 309 749 324 310 750 353 248 751 311 311 752 303 312 753 359 313 754 357 314 755 317 275 756 250 235 757 269 315 758 315 316 759 366 317 760 364 318 761 321 319 762 370 261 763 266 320 764 325 321 765 250 235 766 326 322 767 314 265 768 263 323 769 262 324 770 318 325 771 359 313 772 319 326 773 314 265 774 390 327 775 389 328 776 262 324 777 306 263 778 314 265 779 323 329 780 265 330 781 324 310 782 350 331 783 302 332 784 301 333 785 267 268 786 317 275 787 269 315 788 339 264 789 393 334 790 390 327 791 310 335 792 298 336 793 346 337 794 326 322 795 368 338 796 325 321 797 324 310 798 259 245 799 262 324 800 272 271 801 271 267 802 313 272 803 295 339 804 255 340 805 248 241 806 323 329 807 261 341 808 312 342 809 325 321 810 268 343 811 322 266 812 315 316 813 336 344 814 304 345 815 333 346 816 244 346 817 284 346 818 240 347 819 335 247 820 275 348 821 275 348 822 276 349 823 240 347 824 340 350 825 245 351 826 289 303 827 328 352 828 240 347 829 276 349 830 282 353 831 257 295 832 376 354 833 242 298 834 256 293 835 257 295 836 252 355 837 276 349 838 238 291 839 242 298 840 332 356 841 281 296 842 310 335 843 266 320 844 270 357 845 292 358 846 361 359 847 287 360 848 342 302 849 381 361 850 290 282 851 329 292 852 380 362 853 375 363 854 273 364 855 277 364 856 244 364 857 274 365 858 283 246 859 240 347 860 302 332 861 392 285 862 393 334 863 349 286 864 285 366 865 352 287 866 281 296 867 280 367 868 245 351 869 280 367 870 289 303 871 245 351 872 245 351 873 330 368 874 281 296 875 362 369 876 279 370 877 341 371 878 311 311 879 283 246 880 259 245 881 279 370 882 379 372 883 331 373 884 381 361 885 332 356 886 282 353 887 253 297 888 238 291 889 242 298 890 383 240 891 297 374 892 382 252 893 247 375 894 346 376 895 298 376 896 248 241 897 345 253 898 295 339 899 275 348 900 354 249 901 380 362 902 256 293 903 375 363 904 374 294 905 327 377 906 241 301 907 277 378 908 295 339 909 297 374 910 249 277 911 249 277 912 347 239 913 299 237 914 249 277 915 343 379 916 295 339 917 301 333 918 339 264 919 337 380 920 300 381 921 338 382 922 285 366 923 293 255 924 237 283 925 236 256 926 305 383 927 284 383 928 258 383 929 326 322 930 299 237 931 347 239 932 322 266 933 269 315 934 325 321 935 262 324 936 323 329 937 324 310 938 323 329 939 260 384 940 264 385 941 232 386 942 235 386 943 233 386 944 417 387 945 437 387 946 434 387 947 416 388 948 432 389 949 396 390 950 426 391 951 395 392 952 405 393 953 409 394 954 433 395 955 398 396 956 422 397 957 400 398 958 435 397 959 399 399 960 424 400 961 404 401 962 404 401 963 416 388 964 396 390 965 436 402 966 408 403 967 429 404 968 428 405 969 398 406 970 418 405 971 431 407 972 403 407 973 420 407 974 429 408 975 401 409 976 436 410 977 397 411 978 423 412 979 417 413 980 427 414 981 402 415 982 433 395 983 411 416 984 406 417 985 400 418 986 425 419 987 394 419 988 412 419 989 413 420 990 435 397 991 401 421 992 419 422 993 420 422 994 394 422 995 410 423 996 405 424 997 402 425 998 421 426 999 397 411 1000 406 417 1001 415 427 1002 412 428 1003 395 429 1004 0 0 1005 196 34 1006 197 1 1007 35 3 1008 6 9 1009 4 4 1010 141 6 1011 142 79 1012 167 7 1013 6 9 1014 35 3 1015 143 10 1016 8 11 1017 143 10 1018 145 12 1019 10 13 1020 145 12 1021 147 14 1022 14 16 1023 12 15 1024 147 14 1025 16 18 1026 14 16 1027 149 17 1028 18 20 1029 16 18 1030 151 19 1031 153 21 1032 71 24 1033 20 22 1034 22 23 1035 20 22 1036 71 24 1037 24 26 1038 22 23 1039 112 25 1040 26 28 1041 24 26 1042 191 27 1043 28 30 1044 26 28 1045 193 29 1046 28 30 1047 194 31 1048 195 32 1049 30 33 1050 195 32 1051 196 34 1052 176 38 1053 217 106 1054 216 39 1055 138 41 1056 105 77 1057 136 42 1058 177 44 1059 178 48 1060 219 45 1061 179 47 1062 220 50 1063 219 45 1064 180 49 1065 221 52 1066 220 50 1067 180 49 1068 181 53 1069 222 51 1070 181 53 1071 182 56 1072 223 54 1073 183 55 1074 224 58 1075 223 54 1076 183 55 1077 184 108 1078 225 57 1079 152 59 1080 154 110 1081 41 60 1082 186 62 1083 187 65 1084 228 63 1085 187 65 1086 188 68 1087 229 66 1088 189 67 1089 230 70 1090 229 66 1091 190 69 1092 231 71 1093 230 70 1094 190 69 1095 175 40 1096 216 39 1097 101 72 1098 95 92 1099 88 73 1100 152 59 1101 40 61 1102 39 75 1103 140 8 1104 167 7 1105 105 77 1106 144 78 1107 36 84 1108 142 79 1109 98 80 1110 96 104 1111 91 81 1112 146 83 1113 37 88 1114 36 84 1115 99 85 1116 98 80 1117 92 82 1118 148 87 1119 38 91 1120 37 88 1121 100 89 1122 99 85 1123 93 86 1124 102 74 1125 88 73 1126 89 37 1127 150 76 1128 39 75 1129 38 91 1130 100 89 1131 94 90 1132 95 92 1133 156 93 1134 158 96 1135 107 94 1136 158 96 1137 160 98 1138 108 97 1139 160 98 1140 162 100 1141 109 99 1142 162 100 1143 164 102 1144 110 101 1145 164 102 1146 166 111 1147 111 103 1148 176 38 1149 177 44 1150 218 46 1151 113 5 1152 4 4 1153 2 2 1154 185 107 1155 226 109 1156 225 57 1157 186 62 1158 227 64 1159 226 109 1160 154 110 1161 156 93 1162 106 95 1163 166 111 1164 139 43 1165 136 42 1166 32 116 1167 72 130 1168 73 117 1169 43 119 1170 90 132 1171 74 120 1172 44 122 1173 43 119 1174 75 121 1175 45 124 1176 44 122 1177 76 123 1178 46 126 1179 45 124 1180 77 125 1181 46 126 1182 78 127 1183 79 128 1184 47 129 1185 79 128 1186 72 130 1187 70 131 1188 80 136 1189 74 120 1190 33 118 1191 73 117 1192 81 133 1193 65 135 1194 82 138 1195 80 136 1196 67 137 1197 83 140 1198 82 138 1199 69 139 1200 84 142 1201 83 140 1202 64 141 1203 85 144 1204 84 142 1205 64 141 1206 86 145 1207 66 143 1208 86 145 1209 68 147 1210 87 146 1211 68 147 1212 97 134 1213 81 133 1214 88 73 1215 120 154 1216 121 148 1217 42 105 1218 122 156 1219 123 149 1220 92 82 1221 91 81 1222 123 149 1223 93 86 1224 92 82 1225 124 150 1226 94 90 1227 93 86 1228 125 151 1229 94 90 1230 126 152 1231 127 153 1232 95 92 1233 127 153 1234 120 154 1235 42 105 1236 96 104 1237 128 155 1238 34 35 1239 89 37 1240 121 148 1241 96 104 1242 98 80 1243 130 158 1244 98 80 1245 99 85 1246 131 159 1247 99 85 1248 100 89 1249 132 160 1250 101 72 1251 133 162 1252 132 160 1253 101 72 1254 102 74 1255 134 161 1256 103 36 1257 135 163 1258 134 161 1259 34 35 1260 129 157 1261 135 163 1262 72 130 1263 104 170 1264 137 164 1265 75 121 1266 74 120 1267 155 112 1268 76 123 1269 75 121 1270 157 165 1271 77 125 1272 76 123 1273 159 166 1274 78 127 1275 77 125 1276 161 167 1277 78 127 1278 163 168 1279 165 169 1280 79 128 1281 165 169 1282 104 170 1283 80 136 1284 192 113 1285 155 112 1286 73 117 1287 137 164 1288 198 171 1289 80 136 1290 82 138 1291 114 172 1292 83 140 1293 115 173 1294 114 172 1295 84 142 1296 116 175 1297 115 173 1298 84 142 1299 85 144 1300 117 174 1301 66 143 1302 118 177 1303 117 174 1304 66 143 1305 87 146 1306 119 176 1307 81 133 1308 198 171 1309 119 176 1310 33 118 1311 121 148 1312 120 154 1313 90 132 1314 43 119 1315 123 149 1316 43 119 1317 44 122 1318 124 150 1319 44 122 1320 45 124 1321 125 151 1322 45 124 1323 46 126 1324 126 152 1325 47 129 1326 127 153 1327 126 152 1328 32 116 1329 120 154 1330 127 153 1331 90 132 1332 122 156 1333 128 155 1334 97 134 1335 129 157 1336 121 148 1337 65 135 1338 70 131 1339 128 155 1340 65 135 1341 130 158 1342 131 159 1343 67 137 1344 131 159 1345 132 160 1346 64 141 1347 69 139 1348 132 160 1349 64 141 1350 133 162 1351 134 161 1352 68 147 1353 86 145 1354 134 161 1355 68 147 1356 135 163 1357 129 157 1358 105 77 1359 137 164 1360 104 170 1361 139 43 1362 1 199 1363 3 178 1364 138 41 1365 3 178 1366 5 179 1367 140 8 1368 5 179 1369 7 180 1370 36 84 1371 169 183 1372 168 181 1373 141 6 1374 7 180 1375 9 182 1376 37 88 1377 170 185 1378 169 183 1379 144 78 1380 9 182 1381 11 184 1382 38 91 1383 171 187 1384 170 185 1385 146 83 1386 11 184 1387 13 186 1388 39 75 1389 172 189 1390 171 187 1391 148 87 1392 13 186 1393 15 188 1394 40 61 1395 173 191 1396 172 189 1397 150 76 1398 15 188 1399 17 190 1400 40 61 1401 41 60 1402 174 115 1403 154 110 1404 152 59 1405 17 190 1406 41 60 1407 106 95 1408 155 112 1409 156 93 1410 154 110 1411 19 192 1412 106 95 1413 107 94 1414 157 165 1415 158 96 1416 156 93 1417 21 193 1418 107 94 1419 108 97 1420 159 166 1421 160 98 1422 158 96 1423 23 194 1424 108 97 1425 109 99 1426 161 167 1427 162 100 1428 160 98 1429 25 195 1430 109 99 1431 110 101 1432 163 168 1433 164 102 1434 162 100 1435 27 196 1436 110 101 1437 111 103 1438 165 169 1439 166 111 1440 164 102 1441 29 197 1442 111 103 1443 136 42 1444 104 170 1445 139 43 1446 166 111 1447 31 198 1448 167 7 1449 198 171 1450 137 164 1451 142 79 1452 168 181 1453 198 171 1454 35 3 1455 168 181 1456 169 183 1457 143 10 1458 169 183 1459 170 185 1460 145 12 1461 170 185 1462 171 187 1463 149 17 1464 147 14 1465 171 187 1466 151 19 1467 149 17 1468 172 189 1469 153 21 1470 151 19 1471 173 191 1472 0 0 1473 2 2 1474 201 200 1475 4 4 1476 202 202 1477 201 200 1478 6 9 1479 203 203 1480 202 202 1481 8 11 1482 204 204 1483 203 203 1484 10 13 1485 205 205 1486 204 204 1487 12 15 1488 206 207 1489 205 205 1490 12 15 1491 14 16 1492 207 206 1493 14 16 1494 16 18 1495 208 208 1496 16 18 1497 18 20 1498 209 209 1499 18 20 1500 20 22 1501 210 210 1502 22 23 1503 211 211 1504 210 210 1505 24 26 1506 212 212 1507 211 211 1508 26 28 1509 213 214 1510 212 212 1511 26 28 1512 28 30 1513 214 213 1514 28 30 1515 30 33 1516 215 215 1517 30 33 1518 0 0 1519 200 201 1520 112 25 1521 192 113 1522 114 172 1523 193 29 1524 191 27 1525 114 172 1526 194 31 1527 193 29 1528 115 173 1529 194 31 1530 116 175 1531 117 174 1532 196 34 1533 195 32 1534 117 174 1535 196 34 1536 118 177 1537 119 176 1538 113 5 1539 197 1 1540 119 176 1541 113 5 1542 198 171 1543 168 181 1544 112 25 1545 71 24 1546 199 114 1547 153 21 1548 174 115 1549 199 114 1550 175 40 1551 200 201 1552 201 200 1553 177 44 1554 176 38 1555 201 200 1556 178 48 1557 177 44 1558 202 202 1559 178 48 1560 203 203 1561 204 204 1562 180 49 1563 179 47 1564 204 204 1565 181 53 1566 180 49 1567 205 205 1568 182 56 1569 181 53 1570 206 207 1571 182 56 1572 207 206 1573 208 208 1574 184 108 1575 183 55 1576 208 208 1577 184 108 1578 209 209 1579 210 210 1580 185 107 1581 210 210 1582 211 211 1583 186 62 1584 211 211 1585 212 212 1586 188 68 1587 187 65 1588 212 212 1589 188 68 1590 213 214 1591 214 213 1592 189 67 1593 214 213 1594 215 215 1595 175 40 1596 190 69 1597 215 215 1598 217 106 1599 49 218 1600 48 216 1601 217 106 1602 218 46 1603 50 217 1604 218 46 1605 219 45 1606 51 219 1607 219 45 1608 220 50 1609 52 220 1610 221 52 1611 53 222 1612 52 220 1613 221 52 1614 222 51 1615 54 221 1616 223 54 1617 55 223 1618 54 221 1619 224 58 1620 56 225 1621 55 223 1622 224 58 1623 225 57 1624 57 224 1625 225 57 1626 226 109 1627 58 226 1628 227 64 1629 59 227 1630 58 226 1631 228 63 1632 60 228 1633 59 227 1634 229 66 1635 61 229 1636 60 228 1637 230 70 1638 62 230 1639 61 229 1640 231 71 1641 63 231 1642 62 230 1643 231 71 1644 216 39 1645 48 216 1646 365 232 1647 384 430 1648 386 233 1649 250 235 1650 309 274 1651 348 236 1652 367 238 1653 326 322 1654 347 239 1655 248 241 1656 255 340 1657 286 242 1658 334 244 1659 306 263 1660 259 245 1661 335 247 1662 311 311 1663 353 248 1664 294 431 1665 344 431 1666 296 432 1667 382 252 1668 297 374 1669 345 253 1670 356 254 1671 345 253 1672 293 255 1673 355 257 1674 292 358 1675 344 258 1676 307 260 1677 372 433 1678 370 261 1679 306 263 1680 337 380 1681 339 264 1682 322 266 1683 313 272 1684 271 267 1685 388 269 1686 267 268 1687 271 267 1688 322 266 1689 268 343 1690 272 271 1691 351 273 1692 350 331 1693 309 274 1694 299 237 1695 348 236 1696 291 276 1697 341 434 1698 363 435 1699 360 435 1700 288 281 1701 342 302 1702 290 282 1703 351 273 1704 317 275 1705 316 284 1706 388 269 1707 391 270 1708 349 286 1709 305 436 1710 258 437 1711 369 438 1712 238 291 1713 276 349 1714 329 292 1715 374 294 1716 376 354 1717 257 295 1718 281 296 1719 330 368 1720 253 297 1721 251 299 1722 378 439 1723 377 300 1724 239 243 1725 289 303 1726 342 302 1727 286 242 1728 340 350 1729 289 303 1730 248 241 1731 239 243 1732 288 281 1733 385 305 1734 308 440 1735 373 306 1736 331 441 1737 379 442 1738 243 443 1739 324 310 1740 265 330 1741 353 248 1742 303 312 1743 319 326 1744 359 313 1745 317 275 1746 309 274 1747 250 235 1748 315 316 1749 304 345 1750 366 317 1751 321 319 1752 320 262 1753 370 261 1754 325 321 1755 269 315 1756 250 235 1757 314 265 1758 389 328 1759 263 323 1760 318 325 1761 369 444 1762 359 313 1763 314 265 1764 339 264 1765 390 327 1766 262 324 1767 259 245 1768 306 263 1769 323 329 1770 264 385 1771 265 330 1772 350 331 1773 351 273 1774 302 332 1775 267 268 1776 316 284 1777 317 275 1778 339 264 1779 302 332 1780 393 334 1781 310 335 1782 270 357 1783 298 336 1784 326 322 1785 367 238 1786 368 338 1787 324 310 1788 311 311 1789 259 245 1790 295 339 1791 343 379 1792 255 340 1793 323 329 1794 263 323 1795 261 341 1796 325 321 1797 368 338 1798 268 343 1799 315 316 1800 338 382 1801 336 344 1802 333 445 1803 273 445 1804 244 445 1805 240 347 1806 283 246 1807 335 247 1808 275 348 1809 329 292 1810 276 349 1811 340 350 1812 278 446 1813 245 351 1814 328 352 1815 274 365 1816 240 347 1817 282 353 1818 332 356 1819 257 295 1820 242 298 1821 238 291 1822 256 293 1823 252 355 1824 328 352 1825 276 349 1826 242 298 1827 257 295 1828 332 356 1829 310 335 1830 321 319 1831 266 320 1832 292 358 1833 355 257 1834 361 359 1835 342 302 1836 280 367 1837 381 361 1838 329 292 1839 275 348 1840 380 362 1841 273 447 1842 327 447 1843 277 447 1844 274 365 1845 334 244 1846 283 246 1847 302 332 1848 351 273 1849 392 285 1850 349 286 1851 300 381 1852 285 366 1853 281 296 1854 332 356 1855 280 367 1856 280 367 1857 342 302 1858 289 303 1859 245 351 1860 278 446 1861 330 368 1862 362 369 1863 246 448 1864 279 370 1865 311 311 1866 335 247 1867 283 246 1868 279 370 1869 246 448 1870 379 372 1871 381 361 1872 280 367 1873 332 356 1874 253 297 1875 252 355 1876 238 291 1877 383 240 1878 347 239 1879 297 374 1880 247 449 1881 296 449 1882 346 450 1883 248 241 1884 293 255 1885 345 253 1886 275 348 1887 335 247 1888 354 249 1889 256 293 1890 329 292 1891 375 363 1892 327 377 1893 251 299 1894 241 301 1895 295 339 1896 345 253 1897 297 374 1898 249 277 1899 297 374 1900 347 239 1901 249 277 1902 291 276 1903 343 379 1904 301 333 1905 302 332 1906 339 264 1907 300 381 1908 336 344 1909 338 382 1910 293 255 1911 288 281 1912 237 283 1913 305 451 1914 333 451 1915 284 451 1916 326 322 1917 250 235 1918 299 237 1919 322 266 1920 267 268 1921 269 315 1922 262 324 1923 263 323 1924 323 329 1925 323 329 1926 312 342 1927 260 384 1928 232 452 1929 234 452 1930 235 452 1931 417 453 1932 423 453 1933 437 453 1934 416 388 1935 430 454 1936 432 389 1937 426 455 1938 415 456 1939 395 457 1940 409 394 1941 427 414 1942 433 395 1943 422 397 1944 411 458 1945 400 459 1946 399 399 1947 407 460 1948 424 400 1949 404 401 1950 424 400 1951 416 388 1952 436 461 1953 403 462 1954 408 462 1955 428 463 1956 409 464 1957 398 465 1958 431 466 1959 408 466 1960 403 466 1961 429 467 1962 413 468 1963 401 469 1964 397 411 1965 414 470 1966 423 412 1967 427 414 1968 410 471 1969 402 415 1970 411 416 1971 421 426 1972 406 417 1973 425 472 1974 419 472 1975 394 472 1976 413 473 1977 422 397 1978 435 397 1979 419 474 1980 431 474 1981 420 474 1982 410 475 1983 426 476 1984 405 477 1985 421 426 1986 414 470 1987 397 411 1988 415 478 1989 425 479 1990 412 479 1991</p>
        </triangles>
      </mesh>
    </geometry>
  </library_geometries>
  <library_visual_scenes>
    <visual_scene id="Scene" name="Scene">
      <node id="left_door" name="left_door" type="NODE">
        <matrix sid="transform">1 0 0 0 0 7.54979e-8 -1 0 0 1 7.54979e-8 0 0 0 0 1</matrix>
        <instance_geometry url="#Roof_low_001-mesh" name="left_door">
          <bind_material>
            <technique_common>
              <instance_material symbol="Material_001-material" target="#Material_001-material">
                <bind_vertex_input semantic="Roof_low-mesh-map-0" input_semantic="TEXCOORD" input_set="0"/>
              </instance_material>
            </technique_common>
          </bind_material>
        </instance_geometry>
      </node>
    </visual_scene>
  </library_visual_scenes>
  <scene>
    <instance_visual_scene url="#Scene"/>
  </scene>
</COLLADA>